<svg width="193" height="60" viewBox="0 0 193 60" fill="none" xmlns="http://www.w3.org/2000/svg">
<path fill-rule="evenodd" clip-rule="evenodd" d="M73.4963 0.0423584H89.1536C93.6994 0.0423584 97.3989 4.11073 97.3989 9.11307V19.0026C97.3989 23.9857 93.6994 28.0349 89.1536 28.0349H73.4963C68.9505 28.0349 65.251 23.9857 65.251 19.0026V9.11307C65.251 4.11073 68.9505 0.0423584 73.4963 0.0423584ZM73.4972 5.05756C71.6763 5.05756 70.394 6.72713 70.394 9.11315V18.9451C70.394 21.3311 71.6699 23.0007 73.4972 23.0007H89.1544C90.9818 23.0007 92.2641 21.3311 92.2641 18.9451V9.11315C92.2641 6.72713 90.9882 5.05756 89.1544 5.05756H73.4972Z" fill="white"/>
<path d="M130.094 5.05749H143.032V28.0157H147.2C147.454 28.0192 147.699 27.9222 147.882 27.746C148.064 27.5698 148.169 27.3288 148.175 27.0754V5.05749H159.946C160.073 5.05918 160.198 5.03602 160.316 4.98936C160.433 4.94269 160.539 4.87343 160.63 4.78552C160.721 4.6976 160.793 4.59277 160.843 4.477C160.893 4.36122 160.919 4.23675 160.921 4.11073V0.0423584H130.094V5.05749Z" fill="white"/>
<path d="M34.437 59.9424H60.0836C60.3347 59.9407 60.5751 59.8404 60.7527 59.6632C60.9303 59.4861 61.0308 59.2462 61.0325 58.9957V54.9209H39.4509V48.4281H56.3199V43.413H39.4509V36.9586H60.0579C60.3096 36.9586 60.551 36.8589 60.7289 36.6813C60.9069 36.5038 61.0068 36.2629 61.0068 36.0119V31.9435H34.437V59.9424Z" fill="white"/>
<path d="M62.6855 36.9586H75.2972V59.9424H79.3622C79.6135 59.9407 79.854 59.8404 80.0316 59.6632C80.2092 59.4861 80.3092 59.2462 80.3111 58.9957V36.9586H91.788C91.9123 36.9586 92.0361 36.9341 92.1509 36.8865C92.2663 36.839 92.3708 36.7693 92.4593 36.6813C92.5471 36.5934 92.617 36.489 92.6644 36.3742C92.7125 36.2593 92.7369 36.1362 92.7369 36.0119V31.9435H62.6855V36.9586Z" fill="white"/>
<path d="M94.1357 36.9586H106.747V59.9424H110.806C110.93 59.9424 111.054 59.9179 111.169 59.8703C111.284 59.8228 111.389 59.7531 111.477 59.6651C111.565 59.5772 111.635 59.4728 111.682 59.358C111.731 59.2431 111.755 59.12 111.755 58.9957V36.9586H123.238C123.49 36.9586 123.731 36.8589 123.909 36.6813C124.087 36.5038 124.187 36.2629 124.187 36.0119V31.9435H94.1357V36.9586Z" fill="white"/>
<path d="M125.854 59.9424H129.919C130.17 59.9407 130.411 59.8404 130.588 59.6632C130.766 59.4861 130.866 59.2462 130.868 58.9957V31.9435H125.854V59.9424Z" fill="white"/>
<path d="M156.477 52.7012L137.883 32.2314C137.793 32.1339 137.684 32.0562 137.563 32.0033C137.441 31.9504 137.31 31.9236 137.178 31.9243H132.831V59.9425H136.896C137.147 59.9408 137.387 59.8405 137.565 59.6633C137.743 59.4861 137.843 59.2463 137.844 58.9957V39.1655L156.72 59.9425H160.567C160.819 59.9425 161.06 59.8427 161.239 59.6652C161.416 59.4876 161.516 59.2469 161.516 58.9957V31.9435H156.502L156.477 52.7012Z" fill="white"/>
<path d="M171.331 36.9586H191.682C191.934 36.9586 192.175 36.8589 192.353 36.6813C192.531 36.5038 192.631 36.2629 192.631 36.0119V31.9435H171.331C166.901 31.9435 163.291 36.0119 163.291 41.0142V50.8845C163.291 55.8676 166.901 59.9232 171.331 59.9232H192.631V44.3469C192.629 44.0969 192.528 43.8578 192.35 43.6817C192.173 43.5055 191.932 43.4066 191.682 43.4066H172.447V48.4281H187.655V54.9081H171.331C169.549 54.9081 168.299 53.2385 168.299 50.8525V41.0142C168.299 38.6282 169.549 36.9586 171.331 36.9586Z" fill="white"/>
<path fill-rule="evenodd" clip-rule="evenodd" d="M33.7896 0.0423584H56.2303C60.0965 0.0423584 63.3664 3.61179 63.3728 7.84011V10.4308C63.3728 14.8063 60.2376 17.7552 56.2367 17.7552H38.9253V27.0754C38.9236 27.2006 38.8973 27.3241 38.8477 27.4392C38.7981 27.5542 38.7263 27.6583 38.6364 27.7456C38.5465 27.8329 38.4402 27.9017 38.3237 27.948C38.2072 27.9944 38.0826 28.0174 37.9571 28.0157H33.7896V0.0423584ZM55.9324 12.7339C57.4534 12.7359 58.2315 12.7369 58.2315 10.5716V7.69945C58.2315 5.46696 57.4044 5.05756 55.7886 5.05756H38.9004V12.7338H55.7886C55.8373 12.7338 55.8852 12.7338 55.9324 12.7339Z" fill="white"/>
<path fill-rule="evenodd" clip-rule="evenodd" d="M120.43 17.7807L128.951 28.0156L122.296 27.99L113.768 17.7551H104.433V27.1009C104.428 27.3542 104.323 27.5953 104.14 27.7715C103.957 27.9477 103.712 28.0447 103.458 28.0412H99.3101V0.0678711H121.751C125.617 0.0678711 128.887 3.6373 128.887 7.86559V10.4563C128.887 14.8317 125.752 17.7807 121.751 17.7807H120.43ZM121.309 5.05744H104.427V12.7336H121.309C121.358 12.7336 121.406 12.7337 121.453 12.7338C122.974 12.7358 123.752 12.7368 123.752 10.5715V7.69932C123.752 5.46684 122.925 5.05744 121.309 5.05744Z" fill="white"/>
<path d="M23.0564 11.4608H8.57255C8.02743 11.4965 7.48065 11.4232 6.96425 11.2452C6.44792 11.0673 5.97231 10.7883 5.56549 10.4245C5.09547 9.81342 4.84072 9.06467 4.84072 8.29436C4.84072 7.52406 5.09547 6.77531 5.56549 6.16422C5.97366 5.80282 6.44953 5.52573 6.96566 5.34896C7.4818 5.17219 8.02794 5.09924 8.57255 5.13434H29.9425L29.9746 0.982798C29.9763 0.85325 29.952 0.724654 29.9028 0.604706C29.8538 0.484756 29.781 0.375907 29.6889 0.284592C29.5967 0.193276 29.4872 0.121361 29.3666 0.0731727C29.2461 0.0249843 29.117 0.00148059 28.9872 0.00406637H7.56592C6.57558 -0.0291766 5.58903 0.141694 4.66787 0.506005C3.74671 0.870316 2.91073 1.42024 2.2122 2.12141C0.781737 3.86206 0 6.04346 0 8.29436C0 10.5453 0.781737 12.7267 2.2122 14.4673C2.9098 15.1697 3.74562 15.7205 4.667 16.0849C5.58839 16.4493 6.57539 16.6195 7.56592 16.5847H22.0562C22.5999 16.5493 23.145 16.6222 23.6602 16.799C24.1753 16.9758 24.65 17.2531 25.0569 17.6145C25.5284 18.2262 25.7841 18.9762 25.7841 19.7479C25.7841 20.5195 25.5284 21.2696 25.0569 21.8812C24.6493 22.2435 24.1735 22.5212 23.6572 22.698C23.1409 22.8749 22.5945 22.9473 22.0498 22.9111H1.91085C1.78232 22.9111 1.65508 22.9365 1.53642 22.9857C1.41776 23.035 1.31004 23.1072 1.21946 23.1981C1.12888 23.2891 1.05723 23.3971 1.00863 23.5158C0.960032 23.6345 0.935444 23.7616 0.93629 23.8898V28.0414H23.0372C24.0286 28.0755 25.0164 27.9051 25.9387 27.5408C26.861 27.1764 27.6981 26.626 28.3973 25.924C29.8232 24.1813 30.602 22.0007 30.602 19.7511C30.602 17.5014 29.8232 15.3209 28.3973 13.5781C27.701 12.8776 26.8672 12.3281 25.9482 11.9637C25.0292 11.5994 24.0448 11.4282 23.0564 11.4608Z" fill="white"/>
<path d="M185.066 11.4798H170.576C170.031 11.5159 169.484 11.4435 168.968 11.2667C168.452 11.0898 167.976 10.8122 167.569 10.4499C167.099 9.83978 166.845 9.09212 166.845 8.32296C166.845 7.55374 167.099 6.80608 167.569 6.19599C167.976 5.83369 168.452 5.55603 168.968 5.3792C169.484 5.20238 170.031 5.12993 170.576 5.16611H190.497C190.754 5.16611 191.001 5.06456 191.183 4.88359C191.366 4.70262 191.469 4.45694 191.471 4.20018L191.503 0.0422399H169.575C168.585 0.0076625 167.597 0.177266 166.675 0.540469C165.753 0.903675 164.915 1.45267 164.215 2.15319C162.789 3.89336 162.01 6.07198 162.01 8.31976C162.01 10.5675 162.789 12.7461 164.215 14.4863C164.915 15.1877 165.752 15.7376 166.674 16.1019C167.597 16.4662 168.584 16.637 169.575 16.6037H184.059C184.604 16.5671 185.15 16.6394 185.667 16.8162C186.183 16.9931 186.659 17.2709 187.066 17.6335C187.536 18.2436 187.79 18.9913 187.79 19.7605C187.79 20.5296 187.536 21.2773 187.066 21.8874C186.659 22.25 186.183 22.5279 185.667 22.7047C185.15 22.8816 184.604 22.9539 184.059 22.9173H163.914C163.786 22.9164 163.659 22.9411 163.541 22.9897C163.423 23.0384 163.315 23.11 163.225 23.2006C163.135 23.2911 163.064 23.3987 163.016 23.517C162.968 23.6353 162.944 23.762 162.946 23.8896V28.0412H185.047C186.037 28.076 187.024 27.9058 187.945 27.5414C188.867 27.177 189.703 26.6263 190.4 25.9238C191.83 24.1867 192.612 22.0084 192.612 19.7605C192.612 17.5125 191.83 15.3342 190.4 13.5971C189.705 12.8971 188.872 12.3478 187.954 11.9834C187.037 11.6191 186.053 11.4477 185.066 11.4798Z" fill="white"/>
<path fill-rule="evenodd" clip-rule="evenodd" d="M0.712891 59.9999V31.9881H21.0185C22.0279 31.9512 23.0344 32.1193 23.9767 32.4822C24.9191 32.8451 25.7776 33.3951 26.5005 34.0991C28.0287 35.7755 28.8388 37.9819 28.7574 40.2465C28.7688 41.5816 28.507 42.905 27.988 44.1357C27.9325 44.2917 27.8501 44.4368 27.7443 44.5643C27.7396 44.5708 27.7371 44.5786 27.7371 44.5867C27.7371 44.5948 27.7396 44.6026 27.7443 44.6091V44.6475C27.9502 44.7534 28.1474 44.8753 28.3342 45.0121L28.3919 45.0633L28.5971 45.2232L28.6356 45.2552L28.9754 45.575C30.4288 47.2952 31.2259 49.4725 31.2259 51.7224C31.2259 53.9722 30.4288 56.1496 28.9754 57.8697C28.2526 58.5737 27.394 59.1238 26.4516 59.4866C25.5093 59.8495 24.5029 60.0176 23.4934 59.9807H6.70138H6.55388L0.712891 59.9999ZM6.11677 48.5176H6.0783V48.5496V54.876C6.07824 54.8825 6.07957 54.8889 6.08222 54.8948C6.08486 54.9007 6.08877 54.906 6.09365 54.9102C6.09852 54.9144 6.10423 54.9176 6.11043 54.9194C6.11665 54.9213 6.12321 54.9217 6.12961 54.9208H22.5113C23.6432 54.9957 24.7587 54.6208 25.6146 53.8781C25.8817 53.5866 26.087 53.2443 26.2181 52.8717C26.3492 52.499 26.4035 52.1037 26.3775 51.7096C26.4082 51.3142 26.3561 50.9167 26.2248 50.5423C26.0935 50.1679 25.8857 49.8248 25.6146 49.5347C24.8467 48.8512 23.8479 48.4833 22.8191 48.5048L6.11677 48.5176ZM23.0894 42.4216C22.2362 43.1645 21.1225 43.5395 19.9926 43.4642H8.57346H6.14343C6.12983 43.4642 6.11681 43.4589 6.1072 43.4493C6.09758 43.4397 6.09217 43.4266 6.09217 43.4131V37.0866C6.09107 37.0796 6.09162 37.0725 6.09381 37.0658C6.096 37.0591 6.09977 37.053 6.10477 37.048C6.10977 37.043 6.11589 37.0393 6.12262 37.0371C6.12934 37.0349 6.13645 37.0343 6.14343 37.0354H19.9862C21.1179 36.9613 22.2332 37.336 23.0894 38.0781C23.5809 38.6957 23.8485 39.4612 23.8485 40.2498C23.8485 41.0385 23.5809 41.8039 23.0894 42.4216Z" fill="white"/>
</svg>
