<svg width="65" height="29" viewBox="0 0 65 29" fill="none" xmlns="http://www.w3.org/2000/svg">
<path d="M38.4492 15.4104C38.3034 15.2372 38.1476 15.0762 37.9828 14.9287C37.844 14.8131 37.712 14.7169 37.6097 14.649C37.6638 14.5704 37.7137 14.4879 37.759 14.402C38.2746 13.3048 38.5874 12.0908 38.6767 10.8401C38.8491 8.54605 38.3104 6.51674 37.1576 5.13858C36.0772 3.84599 34.4894 3.1622 32.5666 3.1622H21.4514L21.6006 1.20259C21.6121 1.04995 21.5966 0.896156 21.5552 0.750981C21.5137 0.605806 21.4471 0.472428 21.3596 0.359324C21.2722 0.246221 21.1658 0.155867 21.0473 0.0940066C20.9287 0.0321464 20.8005 0.000130931 20.671 0H7.50538C5.63258 0 3.98511 0.682908 2.73981 1.97461C1.41094 3.35366 0.583479 5.37945 0.410375 7.67786C0.237271 9.97628 0.759566 12.0012 1.88101 13.3811C2.93157 14.6728 4.47682 15.3557 6.34887 15.3557H15.2868C15.7438 15.3478 16.1992 15.4218 16.6373 15.5754C16.9846 15.6911 17.3019 15.9077 17.5603 16.2054C17.7737 16.4701 18.0475 16.9333 17.9714 17.9488C17.8953 18.9644 17.5506 19.4302 17.2999 19.6923C17.0024 19.9864 16.6548 20.2013 16.2807 20.3222C15.8312 20.4739 15.3655 20.5479 14.8981 20.5419H1.65419C1.30147 20.5422 0.961698 20.699 0.70208 20.9814C0.442463 21.2637 0.281914 21.651 0.252194 22.0666L0 25.6267H15.348C15.4808 25.6267 15.6159 25.6267 15.7562 25.6152L15.5159 28.803H20.6448L20.6687 28.796C20.6905 28.79 20.7128 28.7871 20.7351 28.7871H32.7017C34.6252 28.7871 36.3159 28.1033 37.5911 26.8099C38.9506 25.4317 39.7952 23.4068 39.9683 21.1084C40.1414 18.81 39.6019 16.7895 38.4492 15.4104ZM16.8724 10.2833C16.7478 10.2763 16.6254 10.2719 16.5045 10.2719H7.56657C6.54511 10.2719 5.73779 9.97011 5.29234 9.42219C5.0797 9.1575 4.80586 8.69429 4.88197 7.67875C4.95808 6.66321 5.30279 6.19735 5.55349 5.93618C6.08101 5.38739 6.93459 5.08564 7.95531 5.08564H17.3022L17.0641 8.24519H31.3288C32.3734 8.24519 33.1941 8.54694 33.6545 9.09309C33.8738 9.35778 34.1551 9.82188 34.079 10.8392C34.0029 11.8565 33.6493 12.3223 33.3911 12.5853C32.9561 13.0264 32.2995 13.3079 31.4929 13.3988H21.6499C20.6523 10.7483 17.8118 10.3442 16.8724 10.2833ZM35.3706 21.111C35.3131 21.8751 35.0886 22.446 34.6834 22.8562C34.1447 23.4033 33.2732 23.7041 32.2301 23.7041L20.0681 23.713C20.0681 23.713 22.0028 22.0754 22.3863 18.5285H32.8852C33.8164 18.577 34.5267 18.8664 34.9468 19.3649C35.1654 19.627 35.4467 20.0964 35.3706 21.111Z" fill="#FCC400"/>
</svg>
