<?xml version="1.0" encoding="UTF-8"?>
<svg id="Layer_2" data-name="Layer 2" xmlns="http://www.w3.org/2000/svg" viewBox="0 0 689.97 123.28">
  <defs>
    <style>
      .cls-1 {
        fill: #fff;
      }

      .cls-2 {
        fill: #ffd020;
      }
    </style>
  </defs>
  <g id="Layer_1-2" data-name="Layer 1">
    <g>
      <g>
        <path class="cls-2" d="M604.43,85.14c0-2.52,2.04-4.56,4.51-4.56s4.56,2.04,4.56,4.56-2.04,4.51-4.56,4.51-4.51-2.04-4.51-4.51Z"/>
        <path class="cls-1" d="M653.18,88.12l-.29.52c-1.04.62-2.42,1-4.03,1s-3.04-.43-4.13-1.28c-1.19-.95-2.23-2.52-3.23-4.7h-12.86l-2.14,5.41h-7.78l13.2-30.85h6.41l9.87,22.12c.95,2.14,1.57,2.71,2.42,2.71.48,0,.9-.24,1.05-.33l.43.24,1.09,5.17ZM630.68,78.54h8.78l-4.37-11.25-4.41,11.25Z"/>
        <path class="cls-1" d="M689.97,74.03c0,8.64-6.64,15.62-16.18,15.62s-16.75-6.83-16.75-16,7.31-16,16.71-16c5.55,0,10.11,2.37,13,5.93v.52l-4.6,3.89h-.52c-1.8-2.18-4.61-3.65-7.83-3.65-5.17,0-9.16,3.89-9.16,9.35s3.94,9.26,9.3,9.26c4.13,0,7.69-2.37,8.59-6.22h-8.69v-5.46h15.47l.52.47c.09.71.14,1.61.14,2.28Z"/>
      </g>
      <g>
        <path class="cls-2" d="M368.6,0h-9c.45,1.44.7,3.04.7,4.82,0,10.94-9.28,17.27-21.5,17.27-9.75,0-18.02-4.04-23.08-10.48v-.81l5.15-5.88h.83c3.94,4.77,9.75,8.36,16.73,8.36s11.39-3.49,11.39-8.28c0-2.08-.84-3.68-2.28-4.99h-39.37c-1.66,0-3,1.35-3,3v117.27c0,1.66,1.35,3,3,3h10.22c-.17-.91-.27-1.89-.27-2.93,0-10.3,8.92-16.82,20.59-16.82,8.73,0,15.8,3.58,20.12,9.09v.83l-5.24,5.52h-.83c-3.11-3.68-7.81-6.9-13.96-6.9-5.8,0-10.22,2.94-10.22,7.54,0,1.44.45,2.63,1.25,3.66h38.76c1.66,0,3-1.35,3-3V3c0-1.66-1.35-3-3-3ZM338.81,93.79c-9.75,0-18.02-4.04-23.08-10.48v-.81l5.15-5.88h.83c3.94,4.77,9.75,8.36,16.73,8.36s11.39-3.49,11.39-8.26c0-6.16-7.35-8.01-15.62-11.22-6.99-2.58-16.08-6.43-16.08-16.82s8.92-16.82,20.59-16.82c8.73,0,15.8,3.58,20.12,9.09v.83l-5.24,5.52h-.83c-3.11-3.68-7.81-6.9-13.96-6.9-5.8,0-10.22,2.94-10.22,7.54s4.79,6.79,10.39,8.92c9.56,3.68,21.33,7.35,21.33,19.67,0,10.94-9.28,17.27-21.5,17.27Z"/>
        <g>
          <path class="cls-1" d="M0,81.01v-1.3l6.7-8.01h1.02c3.63,4,9.78,7.45,16.11,7.45,5.31,0,8.85-2.42,8.85-5.96,0-4.38-5.59-5.77-12.29-8.1-8.19-2.79-18.25-6.8-18.25-18.44s10.15-17.97,22.63-17.97c9.03,0,16.76,3.26,21.51,9.03v1.4l-6.7,7.54h-1.21c-2.79-3.07-7.36-6.24-13.31-6.24-4.56,0-7.91,1.96-7.91,5.4,0,3.82,4.28,5.49,9.03,7.26,9.87,3.44,21.41,7.17,21.41,20.02s-10.34,18.34-23.37,18.34c-9.78,0-18.53-3.45-24.21-10.43Z"/>
          <path class="cls-1" d="M73.28,29.79v34.92c0,8.66,4.94,13.69,12.85,13.69s12.85-5.03,12.85-13.69V29.79h14.25v34.27c0,17.23-10.34,27.38-27.09,27.38s-27.47-10.15-27.47-27.38V29.79h14.62Z"/>
          <path class="cls-1" d="M177.67,49.63c0,12.1-8.01,19.83-23.46,19.83h-11.83v20.86h-14.53V29.79h26.35c15.36,0,23.46,7.73,23.46,19.83ZM162.86,50c0-5.03-3.45-8.29-8.47-8.29h-12.01v16.48h12.01c5.03,0,8.47-3.17,8.47-8.19Z"/>
          <path class="cls-1" d="M202.81,41.71v12.57h22.63v11.36h-22.63v12.76h29.52v11.92h-44.04V29.79h44.04v11.92h-29.52Z"/>
          <path class="cls-1" d="M298.16,88.18l-.47,1.02c-1.86,1.4-5.03,2.24-8.19,2.24-8.85,0-12.38-5.31-16.29-12.85-1.95-3.82-5.31-10.99-9.13-10.99h-4.75v22.72h-14.53V29.79h26.35c15.36,0,23.46,7.36,23.46,19.27,0,8.47-4.94,14.34-12.57,16.95,1.3,1.12,2.42,3.17,3.54,5.21,1.77,3.82,3.45,7.26,6.61,7.26.93,0,1.77-.37,2.42-.65l.93.47,2.61,9.87ZM271.25,57.63c5.03,0,8.57-2.98,8.57-7.82s-3.54-8.1-8.57-8.1h-11.92v15.92h11.92Z"/>
        </g>
        <g>
          <path class="cls-1" d="M415.75,92.02h-36.93v-59.42h10.15v50.83h26.79v8.59Z"/>
          <path class="cls-1" d="M423.89,62.31c0-17.64,13.8-30.81,31.9-30.81s31.9,13.16,31.9,30.81-13.8,30.81-31.9,30.81-31.9-13.16-31.9-30.81ZM477.37,62.31c0-12.62-9.42-21.67-21.58-21.67s-21.57,9.05-21.57,21.67,9.42,21.67,21.57,21.67,21.58-9.05,21.58-21.67Z"/>
          <path class="cls-1" d="M525.09,41.19v50.83h-10.15v-50.83h-18.92v-8.59h47.99v8.59h-18.92Z"/>
          <path class="cls-1" d="M553.8,82.7v-.82l5.12-5.85h.82c3.93,4.75,9.69,8.32,16.64,8.32s11.34-3.47,11.34-8.23c0-6.12-7.31-7.95-15.54-11.15-6.95-2.56-16-6.4-16-16.73s8.87-16.73,20.48-16.73c8.68,0,15.72,3.56,20.02,9.05v.82l-5.21,5.49h-.82c-3.11-3.66-7.77-6.86-13.9-6.86-5.76,0-10.15,2.93-10.15,7.5s4.76,6.77,10.33,8.87c9.51,3.66,21.21,7.31,21.21,19.56,0,10.88-9.23,17.19-21.39,17.19-9.69,0-17.92-4.02-22.95-10.42Z"/>
        </g>
      </g>
    </g>
  </g>
</svg>