<?xml version="1.0" encoding="UTF-8"?>
<svg id="Layer_2" data-name="Layer 2" xmlns="http://www.w3.org/2000/svg" viewBox="0 0 189.7 352.03">
  <defs>
    <style>
      .cls-1 {
        fill: #3d0061;
      }

      .cls-2 {
        fill: #ffd020;
      }
    </style>
  </defs>
  <g id="Layer_1-2" data-name="Layer 1">
    <g>
      <path class="cls-1" d="M157.44,218.48c0,31.23-26.49,49.33-61.39,49.33-27.83,0-51.47-11.53-65.9-29.94v-2.32l14.7-16.8h2.37c11.26,13.63,27.84,23.86,47.76,23.86s32.53-9.97,32.53-23.59c0-17.61-21-22.88-44.59-32.04-19.97-7.37-45.93-18.36-45.93-48.03s25.47-48.03,58.8-48.03c24.93,0,45.12,10.24,57.45,25.96v2.37l-14.96,15.77h-2.37c-8.89-10.5-22.3-19.7-39.86-19.7-16.57,0-29.17,8.4-29.17,21.53s13.67,19.39,29.67,25.47c27.3,10.5,60.89,21,60.89,56.16Z"/>
      <path class="cls-1" d="M153.24,321.6v2.37l-14.96,15.77h-2.37c-8.89-10.5-22.3-19.7-39.86-19.7-16.57,0-29.17,8.4-29.17,21.53,0,4.11,1.29,7.51,3.57,10.46h-32.7c-.49-2.6-.76-5.41-.76-8.36,0-29.4,25.47-48.03,58.8-48.03,24.93,0,45.12,10.23,57.45,25.96Z"/>
      <path class="cls-1" d="M157.44,13.76c0,31.23-26.49,49.33-61.39,49.33-27.83,0-51.47-11.53-65.9-29.94v-2.32l14.7-16.8h2.37c11.26,13.63,27.84,23.86,47.76,23.86s32.53-9.96,32.53-23.63c0-5.95-2.41-10.5-6.52-14.26h34.44c1.3,4.11,2.01,8.67,2.01,13.76Z"/>
      <path class="cls-2" d="M181.12,0h-25.69c1.3,4.11,2.01,8.67,2.01,13.76,0,31.23-26.49,49.33-61.39,49.33-27.83,0-51.47-11.53-65.9-29.94v-2.32l14.7-16.8h2.37c11.26,13.63,27.84,23.86,47.76,23.86s32.53-9.96,32.53-23.63c0-5.95-2.41-10.5-6.52-14.26H8.57C3.84,0,0,3.85,0,8.58v334.87c0,4.73,3.84,8.58,8.57,8.58h29.18c-.49-2.6-.76-5.41-.76-8.36,0-29.4,25.47-48.03,58.8-48.03,24.93,0,45.12,10.23,57.45,25.96v2.37l-14.96,15.77h-2.37c-8.89-10.5-22.3-19.7-39.86-19.7-16.57,0-29.17,8.4-29.17,21.53,0,4.11,1.29,7.51,3.57,10.46h110.67c4.74,0,8.58-3.85,8.58-8.58V8.58c0-4.73-3.84-8.58-8.58-8.58ZM96.05,267.81c-27.83,0-51.47-11.53-65.9-29.94v-2.32l14.7-16.8h2.37c11.26,13.63,27.84,23.86,47.76,23.86s32.53-9.97,32.53-23.59c0-17.61-21-22.88-44.59-32.04-19.97-7.37-45.93-18.36-45.93-48.03s25.47-48.03,58.8-48.03c24.93,0,45.12,10.24,57.45,25.96v2.37l-14.96,15.77h-2.37c-8.89-10.5-22.3-19.7-39.86-19.7-16.57,0-29.17,8.4-29.17,21.53s13.67,19.39,29.67,25.47c27.3,10.5,60.89,21,60.89,56.16,0,31.23-26.49,49.33-61.39,49.33Z"/>
    </g>
  </g>
</svg>