<svg width="37" height="29" viewBox="0 0 37 29" fill="none" xmlns="http://www.w3.org/2000/svg">
<path d="M22.5146 14.8837H16.6884L19.4674 17.9035L17.7217 22.7512H13.8095L18.0525 11.0615L17.5456 11.2768C17.526 11.2846 17.5064 11.2944 17.4888 11.3042L15.9564 12.1359C15.9407 12.1457 15.9231 12.1555 15.9075 12.1653C15.8762 12.1849 15.7352 12.2749 15.5591 12.3845L15.5278 12.4882C15.4984 12.4765 15.4652 12.4706 15.4319 12.4647C15.3027 12.545 15.1638 12.633 15.0385 12.7094C14.9309 12.7759 14.8506 12.8718 14.8095 12.9775L14.741 13.1634C14.698 13.1341 14.651 13.1106 14.6001 13.093C14.424 13.0342 14.2146 13.0499 14.0404 13.1536C12.7937 13.8993 11.5666 14.6508 10.3728 15.3984C10.3395 15.4865 10.2808 15.5883 10.2358 15.6568L9.08502 16.2517C9.05958 16.2537 9.03414 16.2635 9.00869 16.2674C8.92454 16.328 8.858 16.4024 8.82081 16.4905C8.76993 16.6099 8.68577 16.7449 8.62706 16.8349L7.3158 17.5023C7.17881 17.5004 7.04377 17.5375 6.93221 17.6119C6.8598 17.6589 6.78934 17.7078 6.71693 17.7548L6.55841 17.9505H6.54275C6.48208 17.9564 6.42337 17.9701 6.36661 17.9877C6.06913 18.1853 5.77361 18.383 5.48004 18.5826L2.90254 25.6986C2.28801 27.4052 3.47206 28.6108 5.81079 28.6108H25.4601L30.4057 14.8857H22.5186L22.5146 14.8837Z" fill="black"/>
<path d="M29.7785 1.69092L29.4458 2.09212L27.9173 2.79668L27.2812 2.9689C27.2265 2.98456 27.1756 3.00413 27.1286 3.02762C26.4358 3.39359 25.6999 3.78501 24.9288 4.19601C24.8642 4.2508 24.8055 4.29582 24.7742 4.3193L24.6274 4.39367C24.5413 4.46413 24.4532 4.52675 24.4141 4.55415L23.1263 5.16673C22.2769 5.66187 21.3884 6.18246 20.4803 6.71871C20.4255 6.75198 20.3786 6.79112 20.3375 6.83613L20.2494 7.02206L20.22 7.02597L20.0713 7.34302L19.4215 7.41543C19.3256 7.42718 19.2317 7.45849 19.1495 7.50546L18.9029 7.65224C18.9029 7.67377 18.9029 7.69726 18.9088 7.71878L18.7072 7.79707C18.6035 7.90666 18.5545 8.04562 18.5722 8.1787L16.9576 8.83042C16.9243 8.84412 16.893 8.85977 16.8617 8.87739C14.7499 10.1554 12.7243 11.4079 10.8436 12.5998C10.7007 12.6898 10.6146 12.8229 10.5931 12.9599L9.34248 13.7036C9.30138 13.729 9.26224 13.7564 9.22897 13.7897L8.15452 14.8289L6.4949 15.7566L5.76099 17.7841C6.07217 17.5415 6.3853 17.2968 6.69648 17.06L6.82173 16.9661C6.97243 16.8526 7.38929 16.4181 7.56152 16.2361C7.60849 16.1872 7.64372 16.1304 7.6672 16.0717C7.89422 16.0149 8.25042 15.9092 8.47353 15.7507C8.68881 15.5961 8.90409 15.4454 9.12133 15.2928C9.182 15.2497 9.23288 15.1988 9.27007 15.1401C9.37379 14.9816 9.38945 14.8407 9.40119 14.7487C9.40119 14.7369 9.4051 14.7213 9.40706 14.7095C9.4188 14.7037 9.43642 14.6958 9.46186 14.6861C9.55776 14.6508 9.64387 14.596 9.70846 14.5275C9.75347 14.5001 9.86502 14.4492 9.93939 14.416C10.1429 14.324 10.3308 14.2222 10.5148 14.1048C10.5598 14.0754 10.5989 14.0422 10.6342 14.005C11.0628 13.5333 11.6832 12.9208 12.376 12.453C12.3956 12.4765 12.419 12.498 12.4445 12.5195C12.4954 12.5606 12.5521 12.59 12.6147 12.6115C12.6304 12.6174 12.65 12.6174 12.6676 12.6233C12.8379 12.4843 13.014 12.3454 13.2058 12.2201C13.2273 12.2338 13.2528 12.2475 13.2782 12.2593C13.331 12.2827 13.3898 12.2984 13.4504 12.3082C13.472 12.3121 13.4935 12.3101 13.515 12.3121C13.5737 12.271 13.6266 12.2338 13.6618 12.2123L13.9945 12.0146C14.1198 12.0185 14.247 11.9853 14.3566 11.9226C14.7636 11.6819 15.1746 11.4451 15.5739 11.22C15.5954 11.2083 15.6169 11.1946 15.6385 11.1789C15.8792 11.0008 16.116 10.8286 16.3039 10.6975C16.7814 10.3628 17.2707 10.1475 17.4429 10.0771C17.5721 10.0888 17.7032 10.0634 17.8187 10.0027C18.0672 9.87355 18.3197 9.74829 18.5722 9.62108L19.31 7.58961H22.9717C23.0578 7.55439 23.14 7.52112 23.2242 7.48589L23.5608 7.28822L23.827 7.20407L24.097 7.04554L24.7801 6.85962C24.8016 6.85179 24.8212 6.84396 24.8407 6.83417C24.9582 6.7872 25.0482 6.71675 25.0971 6.63651L25.148 6.5504C25.2811 6.5504 25.4572 6.54648 25.5747 6.52887C25.6001 6.52495 25.6255 6.51908 25.651 6.51321C25.604 6.53865 25.5551 6.56409 25.5062 6.58954C25.4964 6.59345 25.4905 6.60128 25.4807 6.60519C25.4925 6.60128 25.5022 6.59737 25.514 6.59345C25.6451 6.54452 25.7528 6.46037 25.8193 6.35273L25.8898 6.23922C26.0287 6.25879 26.2127 6.27836 26.3379 6.27053C26.3653 6.27053 26.3927 6.26466 26.4201 6.26074C26.3653 6.28814 26.3105 6.3175 26.2538 6.34686C26.2088 6.37034 26.1677 6.39774 26.1324 6.42905L26.0111 6.53474L25.285 6.85374C25.2713 6.85962 25.2557 6.86744 25.242 6.87527C24.8681 7.07294 24.4513 7.29214 24.0129 7.52699C23.9816 7.54264 23.9542 7.56221 23.9268 7.58179L23.9092 7.59549H31.307L32.8786 7.59353L33.951 4.61678L35 1.70266H29.7609L29.7785 1.69092Z" fill="black"/>
<path d="M21.0701 1.3876H3.71849H0L2.67731 4.27824L1.60482 7.25499H9.1651L8.51142 9.06139C8.59362 9.03986 8.68169 9.00659 8.77563 8.94984C8.77563 8.94984 9.03984 8.78935 9.1514 8.72086C9.1514 8.72086 9.60544 8.44882 9.6074 8.44882C9.77375 8.34901 9.94402 8.25115 10.1123 8.1533C10.2004 8.01826 10.2395 7.86952 10.2278 7.71295C10.2278 7.68946 10.2219 7.63075 10.2278 7.59552C10.2337 7.59552 10.2395 7.59161 10.2493 7.58965C10.3374 7.57008 10.5449 7.59357 10.7132 7.61314C10.7934 7.62292 10.856 7.63075 10.9187 7.63662C10.9226 7.63662 10.9265 7.63662 10.9324 7.63662C11.0654 7.5055 11.1183 7.36654 11.0831 7.22172C11.0791 7.2041 11.0694 7.16496 11.0713 7.13952C11.0772 7.13952 11.0831 7.1356 11.0909 7.13365C11.1731 7.11212 11.3727 7.11603 11.5332 7.11799C11.6095 7.11799 11.6702 7.11799 11.7309 7.11799C11.8659 7.11799 12.0009 7.08472 12.1086 7.02601C12.2828 6.93011 12.4589 6.83813 12.635 6.74614C12.6996 6.66394 12.7407 6.57 12.7446 6.47215C12.7446 6.45454 12.7446 6.43692 12.7446 6.41931C12.7583 6.41148 12.774 6.40365 12.7896 6.39386C12.9775 6.28818 13.2006 6.16097 13.3592 6.12183C13.367 6.11791 13.3748 6.114 13.3826 6.11009C13.5921 6.00049 13.8504 5.86153 13.9933 5.86153C14.0363 5.86153 14.0794 5.85762 14.1224 5.84979C14.1714 5.82239 14.2242 5.79891 14.3005 5.77934C14.324 5.77346 14.3514 5.76759 14.3749 5.76172C14.3886 5.75389 14.4043 5.74606 14.418 5.73824L14.4884 5.69322C14.5667 5.64234 14.6274 5.6032 14.7546 5.56797C14.8485 5.54253 14.9464 5.51904 15.0462 5.49556C15.0912 5.48381 15.1342 5.46816 15.1734 5.45054C15.7292 5.16872 16.287 4.89081 16.8408 4.62856C16.8467 4.6266 16.8526 4.62269 16.8565 4.62073C17.1912 4.46025 18.3224 3.81441 18.5416 3.68915L19.5338 3.41125C19.5612 3.40342 19.5886 3.39363 19.616 3.38189C20.4967 3.01004 21.3911 2.65385 22.2816 2.32114L22.0193 2.46597C21.9684 2.49532 21.9215 2.53055 21.8804 2.56969C21.8706 2.57948 21.8549 2.59513 21.8354 2.61471C21.8843 2.59709 21.9332 2.57752 21.9841 2.55991L21.7962 2.65776C21.6416 2.81629 21.352 3.12551 21.2561 3.29773C21.2502 3.30752 21.2463 3.3173 21.2404 3.32905C21.0545 3.43082 20.5691 3.6461 19.3929 4.09232C19.3342 4.11384 19.2794 4.14516 19.2305 4.18234L17.5728 5.43684L16.5394 5.82826C16.4357 5.8674 16.3457 5.93003 16.2792 6.01027L15.739 6.66199L14.9053 7.32153L13.7114 7.61705C13.6664 7.62879 13.6234 7.64249 13.5823 7.66207L11.5899 8.60539C11.5684 8.61517 11.5469 8.62691 11.5273 8.63866L10.3902 9.33538C10.3531 9.35691 10.3198 9.38235 10.2904 9.41171L9.49976 10.1554L8.32159 11.0596L7.63269 11.4862L7.38022 12.183L7.31368 12.2241L7.0984 12.4433C6.8792 12.6155 6.73438 12.7642 6.57194 12.9345L6.18443 13.2281L5.79693 13.6136L5.62666 13.8191L5.31548 13.9737L4.37412 14.645C4.37412 14.645 4.78511 14.4121 5.01996 14.2731C5.25481 14.1342 5.84781 13.9385 5.84781 13.9385L5.9809 13.7702C6.14529 13.6723 6.33709 13.5549 6.5465 13.4257C6.66784 13.3514 6.43886 13.6567 6.43886 13.6567C6.43886 13.6567 6.83615 13.3318 6.96923 13.232C7.10231 13.1322 7.47416 12.9912 7.47416 12.9912L7.79317 12.6429C7.87928 12.6135 7.86363 12.6331 7.91451 12.6018C7.96539 12.5705 8.00258 12.5587 8.00258 12.5587L8.07695 12.4628C8.25113 12.3513 8.42923 12.2378 8.60732 12.1243C8.56231 12.2162 8.51925 12.3121 8.51925 12.3121L8.95569 11.9011C9.28839 11.6878 9.6211 11.4765 9.93815 11.2729C9.98708 11.2416 10.2748 11.0576 10.3491 11.0244C10.4216 10.9911 10.5527 10.9265 10.5527 10.9265L10.6368 10.8287C10.7875 10.7328 10.9304 10.6427 11.0674 10.5566C11.2161 10.4627 11.4236 10.3355 11.6741 10.1809C11.8913 10.0458 12.2123 9.86967 12.2123 9.86967C12.2123 9.86967 12.3963 9.72289 12.4882 9.72485C12.5802 9.72876 12.7583 9.54675 12.7877 9.48413C12.7936 9.47238 12.8033 9.46064 12.8151 9.45085C12.8288 9.45085 12.8425 9.45281 12.8562 9.45281C12.9149 9.41954 12.9736 9.38236 13.0304 9.34908C13.0813 9.31973 13.1223 9.28646 13.1556 9.24732C13.1791 9.21992 13.2065 9.1886 13.2359 9.15925C13.3494 9.08096 13.4629 9.00072 13.5784 8.91852C13.7095 8.91461 13.8386 8.88134 13.9424 8.82263C14.4023 8.56037 14.872 8.29812 15.3437 8.03783C15.3632 8.01826 15.3848 7.99869 15.4004 7.9752L15.4807 7.86756C15.5766 7.84799 15.7018 7.8108 15.829 7.76188C15.8545 7.74035 15.8779 7.71882 15.8975 7.69338L15.9621 7.61118C16.0423 7.59161 16.148 7.5603 16.2537 7.52115C16.2909 7.49767 16.3261 7.47614 16.3574 7.45657C16.4768 7.38611 16.6099 7.30783 16.7567 7.13365C16.8037 7.07885 16.8232 7.06906 16.927 7.02209C17.0013 6.98687 17.105 6.9399 17.2362 6.8577C17.5121 6.68547 17.7294 6.55239 17.835 6.48585C17.8761 6.46823 17.9916 6.43105 18.0699 6.40561C18.3498 6.31362 18.5787 6.23534 18.7568 6.13944C19.0015 6.00636 19.2461 5.87523 19.4908 5.74411C19.6747 5.64625 19.7843 5.47794 19.7882 5.30572C20.2971 5.31746 20.5848 5.16872 20.7453 5.08652L20.8412 5.03759C20.9625 4.97497 21.1034 4.90255 21.3167 4.79296L21.6318 4.63247C21.8158 4.53853 21.9958 4.44851 22.1211 4.38588L22.8785 4.01012C22.8785 4.01012 23.7553 3.5639 23.9686 3.22532C23.9803 3.20771 23.9901 3.19009 23.998 3.17248C24.1232 3.14899 24.3326 3.11768 24.6712 3.09419C24.7554 3.08832 24.8356 3.0668 24.9119 3.03157L25.317 2.84173C25.6047 2.70865 25.8866 2.57752 26.1703 2.44835C26.3073 2.38573 26.4091 2.28396 26.4619 2.16653L27.7986 1.71444C27.8358 1.70074 27.873 1.68508 27.9082 1.66551L28.3936 1.39739H21.0701V1.3876Z" fill="#F8991D"/>
<path d="M20.3746 6.98489C20.6055 6.87138 21.1966 6.76569 21.1966 6.76569L21.3218 6.59542C21.4843 6.51518 21.6702 6.41733 21.8757 6.30969C21.9931 6.24706 21.7798 6.55628 21.7798 6.55628C21.7798 6.55628 22.1634 6.26076 22.2925 6.17073C22.4217 6.08071 22.7897 5.99264 22.7897 5.99264L23.093 5.6521C23.1772 5.63645 23.1654 5.65602 23.2124 5.62862C23.2594 5.60122 23.2985 5.5973 23.2985 5.5973L23.367 5.50141C23.5373 5.40747 23.7114 5.31157 23.8856 5.21567C23.8465 5.31352 23.8093 5.41529 23.8093 5.41529L24.2281 5.02583C24.553 4.84578 24.8779 4.66768 25.1891 4.49546C25.236 4.47002 25.5178 4.31345 25.5903 4.28996C25.6627 4.26648 25.7918 4.21755 25.7918 4.21755L25.8721 4.11969C26.0189 4.03945 26.1598 3.96313 26.2929 3.89071C26.4377 3.81243 26.6412 3.70675 26.8859 3.57758C27.0992 3.46407 27.4143 3.32511 27.4143 3.32511C27.4143 3.32511 27.5924 3.19007 27.6863 3.21356C27.7803 3.23704 27.9486 3.0609 27.976 2.99436C27.9818 2.97871 27.9936 2.965 28.0073 2.95326C28.0464 2.92978 28.0875 2.90629 28.1286 2.88281C28.6257 2.58729 29.1639 2.23892 29.6923 1.84946C29.8039 1.7653 30.2071 1.53241 30.2071 1.53241L30.6454 1.07249C30.9312 0.814154 31.2032 0.542116 31.4479 0.258337L31.7042 0L30.6963 0.775011C30.3245 1.02356 29.8372 1.34453 29.2774 1.6968C29.1111 1.76139 28.8038 1.88077 28.7431 1.91404C28.659 1.95906 28.3048 2.05495 28.2578 2.08822C28.2108 2.11954 28.0816 2.28198 28.0816 2.28198L27.1227 2.62447L26.7665 2.70862L25.4122 3.63238C25.4122 3.63238 24.7076 3.97878 24.6704 3.99248C24.6332 4.00618 24.3103 4.19602 24.3103 4.19602L23.9815 4.42696L23.7251 4.56591C23.5627 4.63637 23.4179 4.70291 23.2868 4.76358L22.9795 4.85556L22.5744 5.0728L22.3689 5.28417C22.1575 5.43878 22.0186 5.5836 21.8639 5.74996L21.4882 6.01221L21.1183 6.38014L20.9578 6.58564L20.6505 6.70306L19.7346 7.29019C19.7346 7.29019 20.1378 7.10231 20.3687 6.99076L20.3746 6.98489Z" fill="black"/>
</svg>
