<svg width="271" height="47" viewBox="0 0 271 47" fill="none" xmlns="http://www.w3.org/2000/svg">
<g clip-path="url(#clip0_877_33166)">
<path fill-rule="evenodd" clip-rule="evenodd" d="M156.812 23.1732L158.417 13.9298H157.34L153.943 23.1732H156.812ZM168.155 6.1084L165.177 33.3498L164.13 37.2165H154.312L155.425 30.9504H151.121L148.798 37.2165H139.024L140.07 33.3498L151.836 6.1084H168.155Z" fill="#FEFEFE"/>
<path fill-rule="evenodd" clip-rule="evenodd" d="M179.911 22.2843H179.149L175.108 37.2165H165.514L166.56 33.3498L177.16 6.1084H188.099L187.156 18.3739H187.829L193.524 6.1084H204.507L200.319 33.3498L199.273 37.2165H189.723L193.765 22.2843H192.957L186.495 37.2165H178.291L179.911 22.2843Z" fill="#FEFEFE"/>
<path fill-rule="evenodd" clip-rule="evenodd" d="M233.163 20.5068L234.713 9.97449L235.76 6.10828H244.816L236.398 37.2164H225.996L225.263 22.862H224.501L222.918 33.3502L221.872 37.2164H212.861L221.279 6.10828H231.68L232.356 20.5068H233.163Z" fill="#FEFEFE"/>
<path fill-rule="evenodd" clip-rule="evenodd" d="M126.392 6.10828C124.06 6.10828 122.014 7.70823 121.4 9.97449L115.075 33.3502C114.461 35.6165 115.642 37.2164 117.974 37.2164H137.565L142.496 18.9958H134.632H132.678H128.822L131.593 23.0042L129.852 29.4392H125.951L130.148 13.9297H142.119L142.12 13.927H143.688L144.756 9.97607L144.758 9.97449L145.804 6.10828H126.392Z" fill="#FEFEFE"/>
<mask id="mask0_877_33166" style="mask-type:alpha" maskUnits="userSpaceOnUse" x="239" y="6" width="32" height="32">
<path d="M270.118 37.2163V6.10815H239.229V37.2163H270.118Z" fill="#FEFEFE"/>
</mask>
<g mask="url(#mask0_877_33166)">
<path fill-rule="evenodd" clip-rule="evenodd" d="M259.059 18.9957H256.991H253.249L255.939 22.8867L254.166 29.4391H250.266L254.462 13.9301H266.433L266.434 13.9274H268.018L269.313 9.14281H269.297L270.119 6.10815H250.706C248.375 6.10815 246.328 7.70811 245.714 9.97437L239.389 33.3501C238.776 35.6169 239.956 37.2163 242.288 37.2163H261.879L266.81 18.9957H259.059Z" fill="#FEFEFE"/>
</g>
<path fill-rule="evenodd" clip-rule="evenodd" d="M209.451 6.10828L201.033 37.2164H210.806L219.224 6.10828H209.451Z" fill="#FEFEFE"/>
<path fill-rule="evenodd" clip-rule="evenodd" d="M73.4458 6.13707C73.4633 6.12708 73.4814 6.11867 73.4989 6.10815H73.4538L73.4458 6.13707Z" fill="#F79820"/>
<mask id="mask1_877_33166" style="mask-type:alpha" maskUnits="userSpaceOnUse" x="24" y="0" width="55" height="40">
<path d="M78.8509 0.526489H24.5498V39.1067H78.8509V0.526489Z" fill="#F79820"/>
</mask>
<g mask="url(#mask1_877_33166)">
<path fill-rule="evenodd" clip-rule="evenodd" d="M55.584 14.2616L55.6737 13.93H55.9477C55.8261 14.04 55.7013 14.1489 55.584 14.2616ZM55.2877 6.10808C54.2587 6.65438 53.183 7.22911 52.0654 7.82962C51.9932 7.86856 51.9274 7.91488 51.8689 7.96803C51.6762 8.14329 51.4394 8.31645 51.3476 8.38171L49.0518 9.45905C49.0332 9.468 49.0146 9.47694 48.9971 9.48694C48.73 9.63168 48.4587 9.77957 48.1869 9.92798C48.1147 9.9043 48.0175 9.93851 47.9086 9.98482C47.8805 9.9964 47.8598 10.009 47.8492 10.0375C47.8402 10.0638 47.8439 10.0843 47.855 10.1085C47.7833 10.1475 47.7095 10.188 47.6379 10.2269C47.5821 10.2485 47.5258 10.269 47.4796 10.2848C47.332 10.3364 47.1797 10.3896 47.0777 10.4553C47.0427 10.478 47.0262 10.5185 47.0315 10.559C46.9275 10.6153 46.8261 10.6711 46.722 10.728L46.3981 11.9248L46.2282 12.0221C46.2282 12.0221 46.2935 11.9948 46.3901 11.9537L45.9649 13.5242C45.9304 13.5663 45.9006 13.6095 45.881 13.6558C45.865 13.6921 45.8783 13.7284 45.9022 13.7574L44.2727 19.7788L42.7569 20.8351C42.321 21.1051 41.7842 21.4324 41.1837 21.7903L43.3834 13.6621L44.0636 13.2637C44.0636 13.2637 43.7147 13.4089 43.4169 13.5363L43.5809 12.9311L42.8116 12.9947C42.6603 13.0074 42.5121 13.0521 42.3815 13.1247L41.8846 13.4021C41.5787 13.5726 41.412 13.8684 41.4386 14.1568L41.274 14.2179C41.3143 14.1579 41.3515 14.1084 41.3515 14.1084C41.3515 14.1084 41.2432 14.1852 41.1099 14.2784L38.88 15.1047C38.8274 15.1242 38.777 15.1478 38.7286 15.1747C36.9473 16.182 35.2111 17.1773 33.5211 18.1567C33.493 18.162 33.4643 18.1672 33.442 18.1615C33.322 18.1278 33.0959 18.3404 33.0529 18.4288C32.763 18.5972 32.4704 18.7667 32.1832 18.9341L32.1779 18.953C31.708 19.2246 31.228 19.5135 30.7475 19.8404L30.7464 19.8414C30.5951 19.943 30.0552 20.2277 30.0552 20.2277L29.4578 20.8056L29.4573 20.8061C29.0697 21.1277 28.7018 21.4682 28.3668 21.8271L28.0174 22.1514L29.3777 21.1935C29.8762 20.8877 30.5314 20.494 31.2822 20.0646C31.4722 19.9998 31.7998 19.8867 31.94 19.8314L29.9309 27.257L29.3771 27.5375L29.0177 27.8601C28.6593 28.1001 28.4172 28.3201 28.1438 28.5733L27.5114 28.9796L26.8668 29.5448L26.5764 29.8569L26.08 30.0422L24.5498 30.9527C24.5498 30.9527 25.2087 30.659 25.5873 30.4827C25.9664 30.3064 26.8966 30.1275 26.8966 30.1275L27.1243 29.8685L27.1249 29.868C27.3898 29.7422 27.6978 29.5912 28.037 29.4222C28.2314 29.3254 27.839 29.7959 27.839 29.7959C27.839 29.7959 28.4894 29.3391 28.7066 29.2006C28.8956 29.0806 29.3591 28.957 29.4791 28.9259L29.4387 29.0759L30.4035 28.3675C30.4481 28.4607 30.5096 28.5349 30.584 28.5901C30.8638 28.8001 31.3273 28.7428 31.7924 28.407L34.9101 26.156C34.9138 26.1586 34.9175 26.1612 34.9212 26.1644C35.175 26.3539 35.5812 26.3281 36.0102 26.0618C37.1762 25.3392 38.3384 24.6276 39.4672 23.9471C39.61 23.8613 39.7496 23.7513 39.8797 23.6234C40.1893 23.3182 40.6023 22.935 40.9623 22.6071L40.9984 22.475C41.1996 22.3424 41.8458 21.9903 41.8458 21.9903L42.6162 21.2861L42.6173 21.2856C43.1105 20.8893 43.5841 20.4724 44.02 20.0382L44.2595 19.8267L43.8464 21.3551C43.8645 21.3445 43.8825 21.334 43.9011 21.3235L43.0319 24.4697C43.0208 24.4766 43.0091 24.4829 42.9974 24.4897L40.6002 33.35C40.1755 34.9205 40.6135 36.1689 41.6977 36.7883L41.5501 36.8952L40.9177 37.5015L40.6379 37.8273L40.1309 38.0641L38.5948 39.1067C38.5948 39.1067 39.2644 38.7478 39.6482 38.5357C40.0326 38.3225 40.9958 38.0336 40.9958 38.0336L41.215 37.7652L41.2156 37.7646C41.4842 37.6131 41.7954 37.4331 42.1384 37.2325C42.3353 37.1173 41.9605 37.6025 41.9605 37.6025C41.9605 37.6025 42.3125 37.3267 42.5849 37.1189C42.7314 37.151 42.8822 37.1778 43.042 37.1931C43.0919 37.1473 43.1328 37.1094 43.1546 37.0894C43.2247 37.0241 43.2905 36.9541 43.3505 36.8804C43.6515 36.5115 44.4506 36.1757 44.9274 35.9752C45.2465 35.8415 45.4143 35.7678 45.5704 35.6747C45.6203 35.6442 45.6707 35.6105 45.719 35.5752C46.294 35.1521 46.8887 34.72 47.495 34.2826L47.7233 34.1179C47.7589 34.0931 47.7961 34.0668 47.8348 34.0374L48.4916 33.5674C48.8468 33.3126 49.1866 33.07 49.6464 32.7463C49.7468 32.6753 49.8487 32.6053 49.9491 32.5342C50.1131 32.4384 50.2968 32.3311 50.497 32.2121H50.4975C50.8522 32.0037 51.3757 31.7327 51.3757 31.7327C51.3757 31.7327 51.6773 31.5016 51.8254 31.5111C51.9735 31.5206 52.2645 31.2358 52.3155 31.1348C52.3266 31.1122 52.3463 31.0895 52.3691 31.0685C52.436 31.0264 52.5029 30.9832 52.5709 30.9395C52.8799 30.7411 53.2011 30.528 53.526 30.308C53.7846 30.239 53.998 30.1932 53.998 30.1932L54.1398 29.8838C54.1499 29.8769 54.16 29.8696 54.1701 29.8627C54.4021 29.7175 54.6654 29.5464 54.9553 29.3538C55.1289 29.2391 54.8921 29.808 54.8921 29.808C54.8921 29.808 55.4162 29.2622 55.5967 29.097C55.7778 28.9322 56.3581 28.7691 56.3581 28.7691L56.7319 28.1428C56.8672 28.1133 56.8534 28.1486 56.923 28.0991C56.9931 28.0496 57.0563 28.0417 57.0563 28.0417L57.1333 27.8638C57.3817 27.6907 57.6339 27.5149 57.8872 27.3375C57.8596 27.5191 57.8362 27.7054 57.8362 27.7054L58.3842 26.9896C58.8577 26.6581 59.3287 26.3276 59.7805 26.0118C59.849 25.9639 60.26 25.6776 60.3709 25.6323C60.4819 25.5876 60.6789 25.4997 60.6789 25.4997L60.7745 25.3202C60.9884 25.1723 61.1934 25.0313 61.3877 24.8986C61.6001 24.7544 61.8979 24.5597 62.2553 24.3197C62.5669 24.1118 63.0389 23.8539 63.0389 23.8539C63.0389 23.8539 63.2853 23.6066 63.4488 23.6471C63.6129 23.6876 63.8284 23.3671 63.8481 23.2434C63.8529 23.2155 63.8661 23.1897 63.8831 23.1661C63.941 23.1229 63.9983 23.0792 64.0567 23.0345C64.7693 22.4887 65.5338 21.8493 66.2618 21.1282L66.2628 21.1272C66.4184 20.9751 66.9992 20.543 66.9992 20.543L67.3714 19.974C67.5296 19.8604 67.6879 19.7472 67.8477 19.6377L68.0213 18.9956H60.1129H58.2031H54.3028L54.8167 19.7393C54.6224 19.8446 54.4706 19.9298 54.3431 20.0404C54.3076 20.0714 54.2964 20.1214 54.315 20.1646C54.3325 20.2046 54.3718 20.2298 54.4148 20.2298C54.4185 20.2298 54.4223 20.2293 54.426 20.2288C54.5348 20.2182 54.7748 20.093 54.9739 19.9661L57.1062 23.0503L56.1016 26.7612L55.6477 27.0686L55.387 27.457C55.0934 27.7433 54.9197 28.0086 54.7249 28.3133L54.2003 28.798L53.8218 29.3412C53.7469 29.378 53.688 29.4085 53.6604 29.4248C53.6534 29.4285 53.6407 29.4348 53.6322 29.4391H51.4766L54.3028 18.9956L54.6437 17.7351C54.6389 17.7378 54.6336 17.7388 54.6283 17.742L54.606 17.7546L55.3572 14.9363C55.3726 14.9294 55.3912 14.9236 55.4066 14.9173L55.5441 14.4089L56.2572 13.93H57.3334C57.3982 13.8963 57.463 13.8616 57.5277 13.8284C57.9705 13.5989 58.365 13.1574 58.5779 12.6826C59.4641 12.83 60.1543 12.4821 60.535 12.2895L60.7628 12.1753C61.0521 12.029 61.3898 11.8595 61.8995 11.6058L62.6482 11.2343C63.0851 11.018 63.5136 10.8069 63.8093 10.6622L65.6007 9.7922C65.6145 9.78588 67.5859 8.80801 68.4073 7.9354C68.6717 7.81962 68.8958 7.72173 68.9239 7.71278C68.9329 7.70962 68.9526 7.7012 68.9786 7.68909C69.2095 7.67173 69.4984 7.65962 69.8732 7.66331C70.0283 7.66488 70.1992 7.62436 70.3734 7.54436L71.0211 7.24753L71.216 6.52702C71.3737 6.46281 71.5239 6.40018 71.6646 6.34018L72.2513 6.18071L73.0536 5.79493L73.4863 5.41757C73.9169 5.14021 74.2073 4.88285 74.536 4.58654L75.2952 4.11813L76.0709 3.45763L76.4208 3.09079L77.0155 2.88501L78.8509 1.83872C78.8509 1.83872 78.0614 2.17029 77.6075 2.36976C77.1535 2.56923 76.0417 2.75291 76.0417 2.75291L75.7672 3.05711L75.7662 3.05764C75.4487 3.20079 75.0802 3.37184 74.6735 3.56447C74.4399 3.67446 74.9135 3.12027 74.9135 3.12027C74.9135 3.12027 74.1325 3.64867 73.8712 3.80867C73.6105 3.96814 72.9108 4.12077 72.9108 4.12077L72.2646 4.73075C72.1043 4.75759 72.1329 4.72338 72.0379 4.77075C71.9423 4.81812 71.8696 4.82548 71.8696 4.82548L71.7183 4.99864C71.3795 5.16548 71.0365 5.33547 70.6914 5.50547C70.7902 5.3281 70.8852 5.146 70.8852 5.146L70.0139 5.84072C69.8329 5.93019 69.6539 6.01914 69.474 6.10808H58.8121C59.1662 5.94598 59.5883 5.77546 59.5883 5.77546C59.5883 5.77546 59.9042 5.56389 60.0577 5.59862C60.2111 5.63336 60.5175 5.35915 60.5716 5.25337C60.5838 5.22968 60.6046 5.20758 60.6284 5.18758C60.6985 5.15021 60.7686 5.11285 60.8392 5.07495V5.07443C61.7084 4.6076 62.6551 4.06024 63.5879 3.44342L63.5895 3.44236C63.7881 3.31237 64.4927 2.9429 64.4927 2.9429L65.2859 2.21766L65.2864 2.21713C65.7982 1.8103 66.2867 1.38189 66.7327 0.934007L67.1962 0.526123L65.4085 1.74662C64.7555 2.13924 63.8969 2.64607 62.9163 3.20026C62.6296 3.30237 62.0992 3.49184 61.993 3.54289C61.8459 3.61341 61.2412 3.76709 61.1583 3.81656C61.075 3.86604 60.8382 4.12129 60.8382 4.12129L59.1901 4.66233L58.5833 4.79443L56.4345 6.10808H55.2877Z" fill="#F79820"/>
</g>
<path fill-rule="evenodd" clip-rule="evenodd" d="M47.2954 9.01006C47.435 8.94427 47.5625 8.8848 47.666 8.83638L48.8702 8.28061C48.8792 8.2764 50.266 7.6222 50.6196 7.10064C50.6377 7.0738 50.6542 7.04643 50.6685 7.01853C50.8655 6.98696 51.1941 6.94906 51.7235 6.92591C51.8536 6.91959 51.9826 6.89012 52.101 6.83854L52.7455 6.55907C53.1013 6.40592 53.4517 6.25698 53.8026 6.10803H51.9173C49.9337 6.10803 48.1593 7.26853 47.2954 9.01006Z" fill="#F79820"/>
<path fill-rule="evenodd" clip-rule="evenodd" d="M33.3111 14.6151L33.3096 14.6157C33.1089 14.7425 32.4032 15.1099 32.4032 15.1099L31.5893 15.7951L31.5888 15.7956C31.0674 16.1835 30.5678 16.5893 30.108 17.0103L29.6333 17.3967L31.4417 16.2162C31.9238 15.9341 32.519 15.5909 33.1901 15.212L33.1306 15.4325C33.2798 15.2904 33.4917 15.262 33.6743 15.1825C33.8155 15.0415 33.9844 14.8662 34.029 14.8467C34.089 14.8678 34.0364 15.0604 34.0391 15.1725C34.2488 15.1067 34.3189 14.7909 34.4978 14.6751C34.5928 14.7499 34.622 14.6215 34.665 14.5141C34.7574 14.4778 34.8312 14.4473 34.8636 14.4315C35.0107 14.3609 35.6064 14.1894 35.6898 14.1409C35.7737 14.092 36.019 13.8536 36.019 13.8536L37.65 13.2789L38.2468 13.1262L40.6493 11.701C40.6493 11.701 41.8705 11.1458 41.9342 11.1237C41.9979 11.101 42.5639 10.8021 42.5639 10.8021L43.1485 10.4479L43.5939 10.2268H43.5944C43.8727 10.1121 44.1227 10.0058 44.3489 9.90632L44.8671 9.7479L45.5738 9.40423L45.9534 9.0895C46.3315 8.85161 46.5868 8.63741 46.8751 8.3911L47.5436 7.9869L48.2243 7.43586L48.5306 7.13481L49.0547 6.94061L50.6703 6.02905C50.6703 6.02905 49.9748 6.33115 49.5745 6.51167C49.1741 6.69219 48.1914 6.90219 48.1914 6.90219L47.9514 7.1506L47.9503 7.15113C47.6705 7.28007 47.3456 7.43323 46.9872 7.60585C46.7817 7.70427 47.1958 7.25271 47.1958 7.25271C47.1958 7.25271 46.5088 7.70375 46.2794 7.84164C46.0495 7.98005 45.432 8.14005 45.432 8.14005L44.865 8.64477C44.7859 8.66162 44.7588 8.66109 44.736 8.66425L45.4273 6.108H35.6542L33.36 14.5846C33.3441 14.5951 33.3276 14.6046 33.3111 14.6151Z" fill="#F79820"/>
<path fill-rule="evenodd" clip-rule="evenodd" d="M9.92761 13.9298H15.8009L10.921 31.9636C10.964 31.9367 11.0107 31.9136 11.0484 31.8815C11.3766 31.602 11.7148 31.3162 12.0636 31.0246C12.2452 30.8736 12.3508 30.671 12.3604 30.4631C12.3885 30.4499 12.4172 30.4362 12.4453 30.4231C12.8998 30.211 13.2662 30.0331 13.5072 29.8383L13.7483 29.6431C13.9453 29.4841 14.1003 29.3584 14.447 29.0842C14.7034 28.881 14.954 28.6826 15.2089 28.4831L15.2365 28.4615C15.4255 28.3147 15.5407 28.111 15.5561 27.8984C15.5715 27.6863 15.4845 27.4831 15.3167 27.3368C15.3135 27.3337 15.3098 27.3305 15.3061 27.3279C15.7823 27.0395 16.6748 26.5774 17.3905 26.3463C17.8567 26.1958 18.351 25.9658 18.7742 25.7606C18.8294 25.7337 18.8814 25.7027 18.9297 25.6674C19.8876 24.9664 20.8714 24.2648 21.8531 23.5817C22.0251 23.4627 22.1345 23.2985 22.1834 23.1238L22.2407 23.0633C22.4164 22.9575 22.5848 22.8564 22.744 22.7612C22.9177 22.6575 23.1598 22.5164 23.4523 22.3438V22.3433C23.7066 22.1938 24.0799 21.997 24.0799 21.997C24.0799 21.997 24.2976 21.8343 24.4006 21.8354C24.5036 21.837 24.716 21.6386 24.7547 21.5701C24.7632 21.5544 24.7776 21.5391 24.7945 21.5244C24.8423 21.4938 24.8906 21.4633 24.939 21.4322C25.5352 21.0517 26.1861 20.6144 26.8286 20.1381L26.8296 20.1375C26.9666 20.037 27.4498 19.7333 27.4498 19.7333L28.0004 19.2113L28.0009 19.2107C28.3545 18.9092 28.6927 18.5986 29.0033 18.2813L29.3245 17.9855L28.0922 18.9202C27.6436 19.2307 27.0532 19.6328 26.3794 20.0791C26.184 20.1739 25.8219 20.3502 25.7492 20.3933C25.6483 20.4528 25.2368 20.6175 25.18 20.6565C25.1227 20.6954 24.9575 20.8744 24.9575 20.8744L23.833 21.3944L23.5728 21.4907L25.1158 15.7892L23.2421 13.9319H25.6186L25.6191 13.9298H27.6654H30.3264H31.8954L32.9658 9.97413L33.0534 9.65203L34.0122 6.10844H12.6588V6.10791H9.31543L11.4673 8.24049L9.92761 13.9298Z" fill="#F79820"/>
<path fill-rule="evenodd" clip-rule="evenodd" d="M22.5369 25.3671L22.5205 25.3781L22.5486 25.2739L21.0599 26.0497L20.7832 26.0371C20.5677 26.0276 20.3495 26.0844 20.1695 26.1986C19.5063 26.6165 18.8495 27.0344 18.1991 27.4518C18.1211 27.5018 18.0521 27.5612 17.9942 27.6281C17.7983 27.856 17.502 28.117 17.4155 28.1917C17.3411 28.2565 17.279 28.3307 17.2323 28.4112L17.1245 28.597L16.4895 28.9496L15.8285 29.0865C15.6703 29.1196 15.5221 29.187 15.3989 29.2833L13.7541 30.5706L13.3612 30.7396L12.8053 31.099L12.56 31.2027C12.4968 31.2296 12.4368 31.2622 12.3805 31.3006C11.8501 31.6638 11.3356 32.0211 10.8312 32.3743L10.7707 32.4132C10.7707 32.4132 9.47627 33.1374 9.4099 33.17C9.34354 33.2032 8.73773 33.5695 8.73773 33.5695L8.10644 33.9826L7.63177 34.2605C7.33869 34.4168 7.07428 34.5595 6.83483 34.691L6.29645 34.9405L5.54464 35.3768L5.12307 35.7073C4.71265 35.9815 4.42913 36.2063 4.10791 36.4631L3.38635 36.9347L2.63242 37.5183L2.28571 37.821L1.73618 38.0989L0 39.1894C0 39.1894 0.734825 38.7873 1.15905 38.5509C1.58274 38.3152 2.59259 37.9094 2.59259 37.9094L2.86603 37.662L2.86656 37.6615C3.16389 37.4947 3.50847 37.2973 3.88969 37.0784C4.10844 36.9526 3.63377 37.3947 3.63377 37.3947C3.63377 37.3947 4.38028 36.8836 4.62823 36.7226C4.87618 36.5615 5.51437 36.2847 5.51437 36.2847L6.14885 35.7642C6.29433 35.7058 6.26566 35.7326 6.35486 35.68C6.44459 35.6273 6.50989 35.6037 6.50989 35.6037L6.66174 35.4642C6.97925 35.2779 7.30153 35.0889 7.6254 34.8984C7.52028 35.0258 7.41834 35.1547 7.41834 35.1547L8.26147 34.5247C8.86728 34.169 9.47043 33.8148 10.0481 33.4753H10.0486C10.1102 33.4384 10.3921 33.2732 10.5971 33.1579L9.4991 37.2162H19.3173L22.5199 25.3802L22.5369 25.3671Z" fill="#F79820"/>
<path fill-rule="evenodd" clip-rule="evenodd" d="M74.773 17.0979C75.2955 16.8484 75.8153 16.6005 76.3133 16.3631L76.3138 16.3626C76.3887 16.3268 76.8416 16.1116 76.9552 16.0768C77.0683 16.0421 77.2706 15.9753 77.2706 15.9753L77.4086 15.8426C77.6444 15.7316 77.87 15.6253 78.0829 15.5258C78.316 15.4169 78.6404 15.2705 79.0317 15.09H79.0323C79.3726 14.9332 79.8722 14.7374 79.8722 14.7374C79.8722 14.7374 80.1658 14.5537 80.3012 14.5806C80.4366 14.6074 80.7239 14.37 80.778 14.28C80.7897 14.2595 80.8093 14.2406 80.8316 14.2232C80.8959 14.1906 80.9607 14.1579 81.026 14.1243C81.8261 13.7148 82.6995 13.2364 83.5639 12.6996L83.5655 12.6985C83.7492 12.5848 84.3974 12.2611 84.3974 12.2611L84.4851 12.1869C84.7962 12.0406 85.1089 11.8917 85.4179 11.7485L85.5363 11.6938C86.1108 11.4275 86.6911 11.1622 87.2746 10.8996C87.4711 10.8112 87.659 10.6828 87.8231 10.5238C88.0567 10.2991 88.2553 10.1728 88.3254 10.1465C88.6291 10.0317 89.0193 9.84963 89.3963 9.6728C89.5996 9.57753 89.7833 9.49175 89.94 9.42175C90.1407 9.33438 91.0624 9.04492 92.428 8.6644C92.4848 8.64861 92.5416 8.62914 92.5979 8.60651L93.6624 8.17389C93.7431 8.14126 93.8227 8.10968 93.9024 8.07757L94.4355 6.10815H77.0338L77.1119 6.04131L77.1124 6.04078C77.5281 5.72395 77.9284 5.3908 78.298 5.0445L78.6776 4.72766L77.2393 5.68343C77.0253 5.81026 76.7779 5.955 76.514 6.10815H75.3895C74.9796 6.33341 74.5639 6.5613 74.1439 6.79234C74.1418 6.7934 74.1402 6.79392 74.1375 6.79445C73.8227 6.88392 73.4308 6.99497 73.2184 7.17339C73.1776 7.20812 73.1685 7.2676 73.1972 7.31338L73.1977 7.31391C73.1967 7.31444 73.1961 7.31496 73.1951 7.31549C73.193 7.2997 73.194 7.28444 73.1839 7.26865C73.1643 7.23602 73.1048 7.13602 72.7693 7.27338C72.5617 7.35759 72.4741 7.45075 72.5011 7.55864C72.5096 7.59127 72.5325 7.61811 72.5638 7.6318C72.5776 7.63706 72.5925 7.64022 72.6068 7.64022C72.6254 7.64022 72.644 7.63548 72.6604 7.62601C72.774 7.56232 72.8123 7.56075 72.8611 7.55864C72.9094 7.55653 72.97 7.55338 73.0708 7.50759C73.073 7.50706 73.0746 7.50548 73.0762 7.50443L73.0034 7.77548L72.3312 8.00547L71.864 8.11757L70.5765 8.89176L70.6174 8.73966C70.2876 8.92281 69.9606 9.10386 69.6256 9.28965C69.5146 9.35122 69.4052 9.42701 69.2995 9.51543C69.2576 9.55017 69.2151 9.58332 69.1727 9.61806C69.0505 9.67227 68.956 9.71385 68.9417 9.71858C68.8918 9.73595 68.4431 9.97437 68.4431 9.97437L67.9791 10.2601L67.6265 10.4354C67.4067 10.5249 67.2098 10.608 67.0308 10.6865L66.6241 10.8054L66.065 11.078L65.7614 11.3359C65.5139 11.4943 65.3318 11.6417 65.1465 11.8012L64.9718 11.8875C64.9437 11.9006 64.9161 11.9154 64.8885 11.9312C63.7337 12.5785 62.546 13.2464 61.3359 13.9295H67.5283C67.2735 14.1211 67.0271 14.3195 66.9639 14.3832C66.9257 14.4216 66.9215 14.4816 66.9544 14.5248C66.9761 14.5521 67.008 14.5669 67.0415 14.5669C67.0595 14.5669 67.0781 14.5627 67.0951 14.5532C67.5103 14.3216 67.7874 14.1153 68.0205 13.929H69.2173L70.2903 9.96279C70.2988 9.95963 70.3094 9.95595 70.3094 9.95595L70.4315 9.83753C70.6338 9.737 70.8281 9.64069 71.0118 9.55069C71.212 9.45227 71.4913 9.32017 71.8284 9.15649C72.1215 9.01492 72.55 8.83755 72.55 8.83755C72.55 8.83755 72.644 8.77861 72.7432 8.73598L69.9999 18.8726L69.8602 18.9852L69.5804 19.2631L69.0978 19.4278L67.6149 20.2383C67.6149 20.2383 68.2547 19.9767 68.6226 19.8199C68.9311 19.6883 69.6128 19.5562 69.8257 19.5167L69.8087 19.5794C69.9946 19.5431 70.1857 19.4762 70.3747 19.3562C70.5759 19.2278 70.7655 19.1041 70.9184 19.0041C70.9572 18.9783 70.9943 18.9541 71.032 18.9294C70.9736 19.0289 70.8127 19.2083 70.8127 19.2083C70.8127 19.2083 71.4424 18.802 71.6532 18.6789C71.864 18.5557 72.4332 18.4273 72.4332 18.4273L72.8038 18.0968C72.9439 18.0647 73.0868 18.0105 73.2269 17.9336C73.5513 17.7552 73.8752 17.5805 74.1986 17.4047C74.1317 17.521 74.0722 17.6284 74.0722 17.6284L74.773 17.0979Z" fill="#F79820"/>
<path fill-rule="evenodd" clip-rule="evenodd" d="M79.2882 5.30744C79.2988 5.30744 79.31 5.30639 79.3206 5.30271L79.4432 5.26591C79.9853 5.10819 80.1377 5.04669 80.1855 4.96783C80.2089 4.92998 80.2057 4.88161 80.1781 4.84639C80.1505 4.81064 80.1037 4.79592 80.0607 4.80906L79.9545 4.84008C79.3594 5.01304 79.2378 5.07034 79.1937 5.14552C79.1714 5.1839 79.1751 5.23174 79.2027 5.26696C79.224 5.29325 79.2553 5.30744 79.2882 5.30744Z" fill="#F79820"/>
<path fill-rule="evenodd" clip-rule="evenodd" d="M66.7699 25.5704C66.8633 25.5131 66.9865 25.45 67.1086 25.3869C67.519 25.1761 67.699 25.0768 67.6571 24.9274C67.6475 24.8922 67.6205 24.8644 67.5854 24.8533C67.5509 24.8423 67.5116 24.8496 67.4835 24.8722C67.3608 24.9711 67.1973 25.0489 67.0523 25.1178C66.8463 25.2155 66.6685 25.3002 66.6117 25.4379C66.5936 25.481 66.6064 25.5304 66.6419 25.5609C66.6626 25.5778 66.6876 25.5862 66.7125 25.5862C66.7327 25.5862 66.7524 25.5809 66.7699 25.5704Z" fill="#F79820"/>
<path fill-rule="evenodd" clip-rule="evenodd" d="M54.6657 4.73355C54.6838 4.73355 54.7018 4.72935 54.7188 4.71988C54.9386 4.59792 55.1006 4.53273 55.2306 4.47963C55.4266 4.40025 55.5683 4.34295 55.7191 4.16999C55.7547 4.13003 55.7547 4.0701 55.7202 4.02962C55.6851 3.98862 55.6257 3.97968 55.58 4.00754C55.5195 4.04434 55.4138 4.09376 55.2928 4.15106C55.048 4.26619 54.7432 4.41024 54.5924 4.54587C54.5516 4.58215 54.5447 4.64418 54.5771 4.68887C54.5983 4.71778 54.6317 4.73355 54.6657 4.73355Z" fill="#F79820"/>
<path fill-rule="evenodd" clip-rule="evenodd" d="M40.195 28.5824C40.2874 28.5262 40.4557 28.4426 40.6341 28.3543C41.3477 27.9999 41.5887 27.8564 41.6084 27.7029C41.6131 27.6624 41.5951 27.6225 41.5611 27.5993C41.5266 27.5762 41.4825 27.5752 41.447 27.5946C41.328 27.6603 41.2086 27.725 41.0907 27.7886C40.6787 28.0115 40.289 28.2213 40.067 28.4079C40.024 28.4447 40.0161 28.5078 40.0495 28.5535C40.0707 28.5824 40.1042 28.5982 40.1382 28.5982C40.1578 28.5982 40.1769 28.5935 40.195 28.5824Z" fill="#F79820"/>
<path fill-rule="evenodd" clip-rule="evenodd" d="M59.1684 16.1697C58.9592 16.2855 58.6747 16.4013 58.3996 16.5139C57.848 16.7386 57.3271 16.9507 57.1694 17.2297C57.145 17.2734 57.154 17.3281 57.1907 17.3618C57.2114 17.3807 57.2379 17.3902 57.265 17.3902C57.2857 17.3902 57.3069 17.3844 57.3255 17.3723C57.5114 17.2481 57.857 17.0828 58.2234 16.9081C58.6263 16.716 59.0442 16.5165 59.2837 16.3534C59.3314 16.3202 59.3452 16.256 59.3144 16.2071C59.2831 16.1576 59.2189 16.1418 59.1684 16.1697Z" fill="#F79820"/>
<path fill-rule="evenodd" clip-rule="evenodd" d="M88.7855 16.2364C88.8094 16.228 88.8296 16.2128 88.8424 16.1912C88.9183 16.0696 89.239 15.867 89.522 15.688C89.7837 15.5228 90.0545 15.3512 90.2228 15.1965C90.2648 15.158 90.2695 15.0949 90.2345 15.0507C90.1994 15.0065 90.1363 14.9965 90.0885 15.0275C89.7264 15.2654 89.5995 15.3186 89.5517 15.3154C89.5161 15.2959 89.4721 15.2975 89.4381 15.3207C89.2921 15.4186 89.1816 15.4949 89.0877 15.5601C88.8535 15.7222 88.7245 15.8117 88.3762 15.9891C88.3353 16.0096 88.3119 16.0533 88.3178 16.098C88.3231 16.1449 88.3337 16.2312 88.4091 16.278C88.4388 16.2964 88.4723 16.3043 88.51 16.3043C88.5817 16.3043 88.6698 16.2764 88.7855 16.2364Z" fill="#F79820"/>
<path fill-rule="evenodd" clip-rule="evenodd" d="M43.9588 14.9217C43.9748 14.9307 43.9923 14.9349 44.0103 14.9349C44.0332 14.9349 44.056 14.9275 44.0746 14.9133C44.1654 14.8475 44.2753 14.776 44.3841 14.7044C44.7537 14.4628 44.9103 14.3481 44.9374 14.2286C44.94 14.2291 44.9427 14.2307 44.9448 14.2307C45.0176 14.2307 45.0983 14.1986 45.1827 14.1654C45.2342 14.1449 45.3085 14.1123 45.3414 14.1149C45.3775 14.1144 45.4067 14.1033 45.428 14.0797C45.4497 14.0565 45.463 14.0255 45.4588 13.9939C45.472 13.9623 45.4965 13.9028 45.4657 13.8418C45.4524 13.8149 45.4232 13.7791 45.3621 13.7623C45.3388 13.7565 45.3154 13.7576 45.2942 13.766C45.1545 13.8197 45.0106 13.9023 44.8418 14.027C44.8269 14.0381 44.8153 14.0523 44.8078 14.0681C44.7919 14.0707 44.7754 14.0702 44.7616 14.0802C44.6974 14.127 44.6108 14.1791 44.5179 14.2349C44.2195 14.4144 43.9116 14.6002 43.9015 14.8217C43.8994 14.8633 43.9217 14.9023 43.9588 14.9217Z" fill="#F79820"/>
<path fill-rule="evenodd" clip-rule="evenodd" d="M8.6309 31.4369C8.6309 31.4369 8.63039 31.4374 8.62988 31.4374L8.64361 31.4434L8.6309 31.4369Z" fill="#F79820"/>
<path fill-rule="evenodd" clip-rule="evenodd" d="M36.2945 26.345C36.3152 26.3913 36.3608 26.4202 36.4171 26.4212H36.4192C36.4463 26.4212 36.4718 26.4113 36.492 26.3934C36.6964 26.2131 36.8259 26.0596 36.8886 25.9244C36.9088 25.8813 36.8976 25.8298 36.8615 25.7983C36.8254 25.7673 36.7718 25.7631 36.732 25.7883C36.7229 25.7935 36.7155 25.7977 36.7102 25.8009C36.7033 25.7977 36.6953 25.7951 36.6879 25.7935C36.6555 25.7857 36.6205 25.7941 36.5944 25.8151C36.5658 25.8382 36.5318 25.8635 36.4978 25.8887C36.3417 26.0054 36.2483 26.0758 36.269 26.1757C36.2732 26.1962 36.2833 26.2141 36.2971 26.2288C36.2801 26.2698 36.2775 26.3072 36.2945 26.345Z" fill="#F79820"/>
<path fill-rule="evenodd" clip-rule="evenodd" d="M25.9775 25.3765C26.0067 25.3765 26.0349 25.3649 26.0556 25.3439C26.0901 25.3087 26.1299 25.2714 26.1692 25.234C26.3067 25.1047 26.3917 25.0217 26.4182 24.9417C26.4315 24.9023 26.4203 24.8587 26.3901 24.8298C26.3593 24.8009 26.3147 24.7924 26.2759 24.8072C26.1076 24.8708 25.9059 25.008 25.8613 25.1599C25.8432 25.223 25.8533 25.2845 25.8905 25.3334C25.9096 25.3586 25.9388 25.3744 25.9701 25.3765C25.9728 25.3765 25.9754 25.3765 25.9775 25.3765Z" fill="#F79820"/>
<path fill-rule="evenodd" clip-rule="evenodd" d="M32.0038 29.1521C32.008 29.1142 31.9921 29.0774 31.9613 29.0543L31.887 28.9975C31.844 28.9649 31.7824 28.9691 31.7436 29.007C31.5493 29.1999 31.5445 29.2031 31.3067 29.3629C31.2753 29.3839 31.2573 29.4191 31.2589 29.457C31.2605 29.4938 31.2817 29.528 31.3141 29.5464C31.3476 29.5648 31.3831 29.5732 31.4208 29.5732C31.5552 29.5732 31.7097 29.468 31.8371 29.3676C31.8647 29.3455 31.8801 29.3119 31.8785 29.2772C31.8785 29.2751 31.878 29.273 31.878 29.2714C31.8923 29.2625 31.9125 29.2514 31.9411 29.2383C31.9757 29.2225 31.9996 29.1899 32.0038 29.1521Z" fill="#F79820"/>
<path fill-rule="evenodd" clip-rule="evenodd" d="M35.6548 26.738C35.6691 26.6907 35.6489 26.6397 35.6059 26.6144C35.5629 26.5892 35.5082 26.5966 35.4727 26.6318C35.2953 26.8105 35.1695 26.9188 35.0368 27.0334L34.9093 27.1443C34.8716 27.1775 34.8616 27.2321 34.8854 27.2758C34.9003 27.3031 34.947 27.3394 34.9784 27.3462C34.99 27.3488 35.0023 27.3504 35.0139 27.3504C35.0973 27.3504 35.1897 27.2879 35.333 27.1869C35.3893 27.1464 35.4461 27.106 35.4934 27.0797C35.5359 27.0566 35.5539 27.0082 35.5433 26.9614C35.5401 26.9467 35.5332 26.933 35.5236 26.9214C35.5332 26.9109 35.5417 26.9009 35.5491 26.8925C35.5953 26.8405 35.6389 26.7916 35.6548 26.738Z" fill="#F79820"/>
<path fill-rule="evenodd" clip-rule="evenodd" d="M69.9288 2.04655C69.9495 2.09282 69.9952 2.12173 70.0515 2.12278H70.0536C70.0807 2.12278 70.1062 2.11279 70.1264 2.09492C70.3313 1.91407 70.4608 1.76057 70.5235 1.62598C70.5431 1.58287 70.532 1.53135 70.4959 1.49981C70.4598 1.4688 70.4067 1.46459 70.3658 1.48982C70.3573 1.49508 70.3504 1.49929 70.3446 1.50244C70.3377 1.49929 70.3302 1.49666 70.3228 1.49508C70.2893 1.48772 70.2554 1.49508 70.2288 1.51611C70.2002 1.53977 70.1667 1.56447 70.1327 1.59023C69.9766 1.70694 69.8821 1.77739 69.9034 1.87727C69.9076 1.89778 69.9177 1.91618 69.9315 1.93037C69.9145 1.97138 69.9118 2.0087 69.9288 2.04655Z" fill="#F79820"/>
<path fill-rule="evenodd" clip-rule="evenodd" d="M68.6126 3.04776C68.6243 3.05038 68.6365 3.05144 68.6487 3.05144C68.7315 3.05144 68.8234 2.9894 68.9667 2.88846C69.0241 2.84798 69.0809 2.80751 69.1281 2.78175C69.1706 2.75809 69.1881 2.70972 69.178 2.66293C69.1749 2.64821 69.168 2.63455 69.1584 2.62245C69.1674 2.61247 69.1765 2.60195 69.1839 2.59407C69.2301 2.54202 69.2736 2.49313 69.2896 2.43951C69.3039 2.39219 69.2837 2.3412 69.2407 2.31596C69.1972 2.29073 69.1425 2.29809 69.1074 2.33331C68.9296 2.51205 68.8037 2.62088 68.6705 2.73548L68.5441 2.84588C68.5064 2.879 68.4963 2.93315 68.5202 2.97731C68.5351 3.00465 68.5818 3.0404 68.6126 3.04776Z" fill="#F79820"/>
<path fill-rule="evenodd" clip-rule="evenodd" d="M37.0094 37.2164L39.9689 26.2793C39.0928 26.7993 38.229 27.314 37.3694 27.8277C37.0784 27.8735 36.8347 27.8966 36.8347 27.8966L36.6452 28.2245H36.6447C36.3824 28.3577 36.0792 28.5182 35.7453 28.6998C35.5536 28.8034 35.8732 28.2035 35.8732 28.2035C35.8732 28.2035 35.2653 28.7387 35.0582 28.8976C34.8517 29.0571 34.2406 29.1592 34.2406 29.1592L33.7723 29.805C33.631 29.8192 33.6501 29.7824 33.5726 29.8271C33.4946 29.8724 33.4293 29.8729 33.4293 29.8729L33.3263 30.0603C33.0497 30.2192 32.7693 30.3808 32.4874 30.5429C32.541 30.345 32.5909 30.1413 32.5909 30.1413L31.9341 30.8623C31.4069 31.1665 30.8823 31.4702 30.3801 31.7597H30.3795C30.3036 31.8034 29.8465 32.0665 29.7275 32.1012C29.6086 32.1365 29.3968 32.207 29.3968 32.207L29.2741 32.3933C29.0363 32.5286 28.8079 32.6581 28.5924 32.7786C28.3572 32.9107 28.0275 33.0865 27.6308 33.3049H27.6303C27.2852 33.4938 26.7702 33.7165 26.7702 33.7165C26.7702 33.7165 26.4856 33.958 26.3253 33.8907C26.1649 33.8233 25.9005 34.1501 25.8633 34.2849C25.8548 34.3154 25.8379 34.3422 25.8166 34.3659C25.7524 34.4065 25.6876 34.447 25.6223 34.4886C24.8222 34.9991 23.9573 35.6059 23.1168 36.3085L23.1157 36.3096C22.9362 36.458 22.2858 36.859 22.2858 36.859L21.7018 37.6022C21.4093 37.82 21.1321 38.039 20.8804 38.2442C20.5497 38.5137 20.238 38.7679 19.9508 38.9548C19.9205 38.9742 19.9019 39.0069 19.9014 39.0427C19.9008 39.0784 19.9178 39.1121 19.9476 39.1332L19.9964 39.169C20.015 39.1821 20.0331 39.19 20.0559 39.19C20.0734 39.1953 20.0925 39.1995 20.1132 39.1995C20.1525 39.1995 20.1987 39.1853 20.2539 39.1379C20.4132 39.0148 20.5571 38.9053 20.7068 38.7911C20.5884 38.9453 20.4663 39.0958 20.3559 39.2553L19.955 39.7405L21.5585 38.3427C22.1531 37.9032 22.9362 37.3385 23.8351 36.7264C24.108 36.6285 24.6114 36.4453 24.7101 36.3911C24.8476 36.3164 25.4322 36.1917 25.5081 36.1364C25.5835 36.0811 25.781 35.7701 25.781 35.7701L27.3558 35.267L27.7822 35.198L27.3266 36.8806C27.196 36.9895 27.0574 37.0895 27.0054 37.1027C26.9757 37.1106 26.9502 37.1306 26.9358 37.1585C26.913 37.2022 26.8748 37.2764 26.9252 37.3411C26.9273 37.3432 26.9289 37.3448 26.9305 37.3474C26.9279 37.349 26.9252 37.3511 26.9226 37.3532C26.9157 37.3406 26.9077 37.3285 26.8992 37.3185C26.8801 37.2953 26.8525 37.2811 26.8222 37.279C26.7904 37.2764 26.7633 37.2869 26.741 37.3069L26.6401 37.398C26.5297 37.4964 26.4946 37.529 26.4654 37.5948C26.3794 37.5532 26.304 37.6216 26.2127 37.7037C26.1516 37.7537 26.0656 37.8232 26.0741 37.9069C26.0561 37.9237 26.0237 37.9511 25.9669 37.9937C25.8994 37.9948 25.8251 38.0421 25.7678 38.0821C25.7603 38.0869 25.026 38.61 25.0993 38.8437C25.1105 38.8779 25.1375 38.9048 25.1726 38.9153C25.1827 38.9179 25.1933 38.9195 25.2034 38.9195C25.2289 38.9195 25.2528 38.9111 25.2729 38.8953C25.3573 38.8269 25.4285 38.7716 25.4906 38.7232C25.6706 38.5848 25.7816 38.499 25.901 38.329C26.4028 38.0532 26.9927 37.669 27.6186 37.2164H37.0094Z" fill="#F79820"/>
<path fill-rule="evenodd" clip-rule="evenodd" d="M72.849 21.1942C72.8941 21.1694 72.9382 21.1452 72.9833 21.12L72.9042 21.2447C72.8893 21.2242 72.8659 21.2131 72.849 21.1942ZM76.9139 29.4392L78.0681 25.173H87.7069L89.8115 17.3959H80.1728L80.228 17.1917C80.3262 17.1406 80.4329 17.0959 80.5036 17.0996C80.6634 17.1085 81.0074 16.8127 81.0722 16.7085C81.0865 16.6854 81.1099 16.6622 81.137 16.6401C81.2134 16.5959 81.2904 16.5517 81.3679 16.5059C82.3215 15.9512 83.3627 15.3117 84.3943 14.6107L84.3959 14.6096C84.6157 14.4617 85.3877 14.0196 85.3877 14.0196L86.2786 13.2412L86.2792 13.2407C86.8499 12.7939 87.3968 12.3313 87.9007 11.8565L88.4199 11.416L86.4411 12.7939C85.7222 13.2491 84.7771 13.8381 83.6988 14.4896C83.3876 14.6254 82.8132 14.877 82.6969 14.9391C82.536 15.0254 81.8845 15.2554 81.7932 15.3133C81.7014 15.3706 81.4327 15.638 81.4327 15.638L79.6487 16.3764L78.9962 16.588L76.367 18.2711C76.367 18.2711 75.0306 18.9527 74.9616 18.9816C74.892 19.0106 74.2724 19.369 74.2724 19.369L73.6332 19.7863L73.1452 20.0537C72.8405 20.1968 72.567 20.3289 72.3196 20.4516L71.7531 20.661L70.9795 21.0789L70.5638 21.4368C70.1969 21.6842 69.9351 21.9052 69.6606 22.1463C69.4461 22.2668 69.2306 22.3868 69.0161 22.5073L68.989 22.6073L68.8233 22.7152L68.0784 23.3436L67.7429 23.6815L67.1689 23.9283L66.5907 24.283L66.7197 23.8062C63.9753 25.3657 61.267 26.9303 58.6351 28.4835C58.3839 28.6319 58.1594 28.8429 57.9921 29.0882C57.785 29.3919 57.4962 29.7355 57.296 29.9608L56.0409 30.5618C56.1227 30.4745 56.2108 30.3887 56.2904 30.3008L56.8251 29.7697L55.5492 30.7976L54.0552 31.5139C53.7801 31.4881 53.4706 31.5697 53.1807 31.7455C51.2454 32.9191 49.317 34.1065 47.4481 35.2759C47.3228 35.3538 47.2039 35.4485 47.0966 35.5559L46.3023 36.3448L46.2684 36.3412C45.9811 36.3133 45.6572 36.4022 45.3573 36.5917C45.0318 36.7975 44.7037 37.008 44.3766 37.2164H45.275L44.0267 38.1385C44.0267 38.1385 42.599 38.9742 42.5236 39.01C42.4487 39.0453 41.7914 39.4832 41.7914 39.4832L41.1187 39.99L40.5995 40.3174C40.2729 40.4932 39.9799 40.6558 39.7149 40.8063L39.1006 41.0679L38.2766 41.5789L37.8492 42.0094C37.4143 42.3484 37.1271 42.6415 36.8032 42.9778L36.0339 43.5562L35.2656 44.3136L34.9263 44.7188L34.3083 45.0241L32.4399 46.3435C32.4399 46.3435 33.2544 45.8846 33.7227 45.6125C34.1905 45.3404 35.3665 44.9541 35.3665 44.9541L35.6314 44.6209L35.6325 44.6204C35.9596 44.4273 36.3387 44.1978 36.7565 43.9415C36.9965 43.7946 36.5425 44.3957 36.5425 44.3957C36.5425 44.3957 37.3294 43.7578 37.5938 43.5604C37.8587 43.3626 38.5946 43.0852 38.5946 43.0852L39.2291 42.3994C39.3985 42.3431 39.3709 42.3799 39.4686 42.3178C39.5663 42.2557 39.6438 42.2352 39.6438 42.2352L39.7893 42.0463C40.1365 41.8268 40.4885 41.6042 40.8426 41.38C40.754 41.5621 40.6696 41.7479 40.6696 41.7479L41.5371 40.94C42.1987 40.5205 42.857 40.1026 43.4889 39.7026C43.5844 39.6421 44.1579 39.2795 44.3033 39.2127C44.4488 39.1463 44.7084 39.0206 44.7084 39.0206L44.8768 38.8264C45.1746 38.639 45.4608 38.46 45.731 38.2911C46.0262 38.1069 46.4383 37.8569 46.9352 37.5501C47.1099 37.4427 47.3175 37.3222 47.5039 37.2164H63.0908L66.5472 24.4436C66.5642 24.4346 66.5838 24.4251 66.5998 24.4173C67.0378 24.1952 68.1124 23.8904 68.1124 23.8904L68.3758 23.6125L68.3768 23.612C68.4995 23.5489 68.6354 23.4778 68.7734 23.4057L65.0361 37.2164H86.0174L88.1221 29.4392H76.9139Z" fill="#F79820"/>
<path fill-rule="evenodd" clip-rule="evenodd" d="M96.1623 7.17627L97.246 6.58154L98.9312 6.15682C98.979 6.14471 99.0267 6.12998 99.0745 6.11261C99.0788 6.11156 99.083 6.10998 99.0878 6.1084H96.2197L95.8984 7.29521C95.9149 7.28889 95.9319 7.28205 95.9489 7.27574C96.0206 7.24784 96.0922 7.21469 96.1623 7.17627Z" fill="#F79820"/>
<path fill-rule="evenodd" clip-rule="evenodd" d="M106.247 19.7512H102.346L103.922 13.9298H107.822L106.247 19.7512ZM111.166 27.4463C113.908 26.8858 115.168 22.9453 115.302 22.4975C115.341 22.3964 115.376 22.2954 115.403 22.1954L118.711 9.97409C119.324 7.70784 118.143 6.10841 115.857 6.10841H101.386L101.658 5.83841L101.891 5.54579L102.334 5.37053L103.655 4.51318C103.655 4.51318 103.074 4.79107 102.74 4.95738C102.407 5.12369 101.556 5.29579 101.556 5.29579L101.375 5.53789L101.375 5.53842C101.142 5.65736 100.872 5.79947 100.575 5.95894C100.404 6.05051 100.713 5.61 100.713 5.61C100.713 5.61 100.16 6.03893 99.9735 6.16893C99.7866 6.29945 99.2557 6.43682 99.2557 6.43682L99.1049 6.60418C98.342 6.98365 97.5222 7.39206 96.6674 7.82047C96.5914 7.85836 96.5171 7.90257 96.4454 7.95204L95.5556 8.56255L95.4961 8.78255C95.3788 8.8457 95.2614 8.90623 95.2115 8.9236C95.1074 8.96044 94.9216 9.03201 94.9216 9.03201L94.8053 9.17096C94.5935 9.28885 94.3901 9.40148 94.1985 9.50726C93.9887 9.62252 93.6951 9.77726 93.3421 9.96883C93.0346 10.1351 92.5796 10.3425 92.5796 10.3425C92.5796 10.3425 92.5154 10.3904 92.4347 10.4357L92.4294 10.4383C92.3492 10.4825 92.2536 10.523 92.1878 10.5093C92.0885 10.4888 91.9292 10.6199 91.8363 10.7283L91.2576 11.012C91.0585 11.053 90.5031 11.1683 90.073 11.2462C89.9265 11.273 89.7768 11.3246 89.6318 11.3993C89.103 11.6719 88.5689 11.9488 88.0263 12.2309C87.3966 12.5582 86.9569 13.2498 86.9994 13.8482C87.001 13.8766 87.0068 13.9029 87.0111 13.9298H90.75L90.7505 13.9287H92.3195L93.0267 11.3146L93.5061 11.1925L95.1499 10.0615L87.8017 37.2165H97.6199L100.242 27.5284H102.214C102.521 33.4735 104.658 37.3002 107.425 39.7581C107.022 38.6249 106.831 37.235 107.259 35.6934C107.259 35.6934 106.728 40.1623 112.577 42.7753C117.414 44.5421 122.116 44.0064 122.116 44.0064C111.502 42.0785 110.934 31.7298 111.166 27.4463Z" fill="#F79820"/>
<path fill-rule="evenodd" clip-rule="evenodd" d="M7.57448 29.6178H7.58138C7.61058 29.6178 7.63925 29.6063 7.65996 29.5852C7.69447 29.5505 7.73376 29.5127 7.77305 29.4759C7.91056 29.3466 7.99551 29.263 8.02206 29.1831C8.03533 29.1436 8.02418 29.1 7.99445 29.0716C7.96313 29.0422 7.91906 29.0338 7.8803 29.0485C7.71146 29.1121 7.5097 29.2498 7.46563 29.4012C7.44705 29.4643 7.45714 29.5258 7.4943 29.5747C7.51342 29.5999 7.54262 29.6157 7.57448 29.6178Z" fill="#F79820"/>
</g>
<defs>
<clipPath id="clip0_877_33166">
<rect width="270.25" height="47" fill="white"/>
</clipPath>
</defs>
</svg>
