<svg width="140" height="65" viewBox="0 0 140 65" fill="none" xmlns="http://www.w3.org/2000/svg">
<path d="M0 56.8617V56.8183C0 52.3641 3.50017 48.8701 8.23005 48.8701C11.4205 48.8701 13.471 50.1804 14.8525 52.0574L11.597 54.5261C10.7049 53.4358 9.67967 52.7358 8.18358 52.7358C5.99675 52.7358 4.46039 54.5478 4.46039 56.7749V56.8183C4.46039 59.1104 5.99985 60.9008 8.18358 60.9008C9.81287 60.9008 10.77 60.1574 11.7085 59.0454L14.964 61.3159C13.4927 63.3013 11.5072 64.7665 8.05039 64.7665C3.59 64.7665 0 61.4274 0 56.8617Z" fill="white"/>
<path d="M32.1184 49.0686H36.2876L42.9349 64.4601H38.2948L37.158 61.7312H31.1365L30.0214 64.4601H25.4712L32.1184 49.0686ZM35.9097 58.4354L34.169 54.0896L32.4065 58.4354H35.9067H35.9097Z" fill="white"/>
<path d="M53.0851 62.1896L55.495 59.374C57.0344 60.5758 58.7505 61.2077 60.5563 61.2077C61.7148 61.2077 62.3404 60.8144 62.3404 60.1608V60.1174C62.3404 59.4855 61.8263 59.1355 59.7076 58.6554C56.384 57.912 53.8192 56.9951 53.8192 53.8512V53.8078C53.8192 50.9705 56.1176 48.9169 59.8624 48.9169C62.517 48.9169 64.5923 49.6169 66.2867 50.9488L64.1246 53.941C62.6967 52.9591 61.1355 52.4356 59.754 52.4356C58.7071 52.4356 58.1929 52.8724 58.1929 53.4175V53.4609C58.1929 54.1609 58.7288 54.4645 60.8908 54.9446C64.4808 55.7097 66.711 56.8434 66.711 59.7054V59.7488C66.711 62.8711 64.1897 64.7265 60.3983 64.7265C57.6323 64.7265 55.0025 63.8747 53.082 62.1927L53.0851 62.1896Z" fill="white"/>
<path d="M78.9336 49.177H83.2825V64.46H78.9336V49.177Z" fill="white"/>
<path d="M96.1733 49.177H100.209L106.634 57.2553V49.177H110.914V64.46H107.123L100.454 56.0751V64.46H96.1733V49.177Z" fill="white"/>
<path d="M123.184 56.8618V56.8184C123.184 52.4293 126.798 48.8702 131.615 48.8702C136.432 48.8702 140 52.3859 140 56.775V56.8184C140 61.2076 136.388 64.7666 131.569 64.7666C126.749 64.7666 123.184 61.2509 123.184 56.8618ZM135.583 56.8618V56.8184C135.583 54.613 133.954 52.6925 131.569 52.6925C129.183 52.6925 127.619 54.5696 127.619 56.775V56.8184C127.619 59.0238 129.248 60.9443 131.612 60.9443C133.975 60.9443 135.583 59.0672 135.583 56.8618Z" fill="white"/>
<path d="M14.6752 12.2398C14.6205 9.58334 14.6591 4.46367 14.6978 1.01191C14.7042 0.490283 14.2856 0.0620335 13.7608 0.0620335C9.86788 0.0523737 3.42481 0.0233944 0.945472 0.0105147C0.398085 0.0072948 -0.0333843 0.470964 0.0020348 1.01835C0.108292 2.50273 0.304707 5.26543 0.417405 6.84963C0.671779 10.4753 0.935812 14.2233 1.21273 17.9068C1.30932 19.1948 1.40914 20.486 1.51218 21.774C3.65987 20.2606 5.75925 18.67 7.92626 17.1791C10.2188 15.5982 12.4438 13.9174 14.672 12.2398H14.6752Z" fill="#2FAF16"/>
<path d="M28.0544 3.02722C28.898 2.40256 29.6997 1.7135 30.5337 1.07917C30.5047 0.982573 30.479 0.889195 30.45 0.792598C30.3341 0.396547 29.9767 0.119634 29.5613 0.113194C27.3331 0.077775 25.0824 0.0713352 22.8928 0.0681152H21.9977C21.5727 0.0681152 21.1991 0.348248 21.0897 0.760398C20.4392 3.14958 19.4926 6.4983 18.6973 9.27387C19.9337 8.41737 21.3344 7.77661 22.5902 6.93299C24.4448 5.68044 26.2512 4.35061 28.0544 3.024V3.02722Z" fill="#2FAF16"/>
<path d="M37.0402 40.7125C37.9933 40.7125 38.9496 40.7221 39.9027 40.7221H47.6723C48.165 40.7221 48.5739 40.3422 48.6093 39.8528L49.4272 28.9565L31.1992 40.7254C33.1569 40.6964 35.1211 40.706 37.0369 40.7125H37.0402Z" fill="#2FAF16"/>
<path d="M50.5938 0.00610352H49.016C45.2036 0.00610352 41.4621 0.00610352 37.7302 0.00610352C37.2086 0.00610352 36.79 0.427913 36.79 0.949541C36.79 1.36491 36.79 1.83502 36.79 2.33733L36.278 19.7861L34.0531 13.0854C34.0531 13.0854 31.8925 5.76976 30.7881 1.96382C29.265 3.44176 27.7517 4.92614 26.1321 6.29783C24.6348 7.56326 23.1955 8.83513 21.8946 10.2938C20.6421 11.7105 19.2511 13.0886 17.7023 14.1931C14.843 16.2377 12.4667 18.7332 10.0518 21.1771C7.69156 23.5663 5.07699 25.4209 1.90859 26.7282C1.90859 26.7282 1.90215 26.7282 1.89893 26.7282C1.944 27.3014 1.98586 27.8745 2.03416 28.4509C2.32718 32.1924 2.63307 36.0531 2.92286 39.8655C2.9615 40.3582 3.37043 40.7381 3.8663 40.7349C8.43537 40.7091 13.0592 40.7156 17.5413 40.7188H21.3376C21.7787 40.7188 22.1619 40.4129 22.2553 39.9814C22.6223 38.2942 23.4692 34.8682 24.2709 31.6547C25.224 27.8552 26.1256 24.3487 26.1256 24.3487L27.0304 28.4573C27.7259 31.6225 28.3796 34.939 29.1073 39.067C33.3543 36.7808 37.3374 34.0536 41.1143 30.9657C44.0348 28.5765 47.0712 26.2903 49.821 23.7369L51.5308 1.02038C51.5726 0.472992 51.1412 0.00932344 50.5938 0.00932344V0.00610352Z" fill="#2FAF16"/>
<path d="M116.634 24.8969C117.857 24.021 119.091 23.1549 120.334 22.3048C120.334 18.1704 120.35 13.4114 120.369 11.4891C120.375 10.8902 120.636 10.3235 121.081 9.92422C121.525 9.52495 122.124 9.33498 122.716 9.39937C123.74 9.50885 124.275 9.96608 124.558 10.507C124.841 11.048 124.87 11.6598 124.893 12.0944C124.973 13.6947 124.986 16.4864 124.961 19.2427C129.758 16.0968 134.669 13.0797 139.611 10.1045C139.499 9.21262 139.354 8.32392 139.186 7.44166C138.465 3.6808 136.517 1.48159 133.236 0.721688C132.112 0.460875 130.789 0.190401 129.497 0.177522C123.808 0.109903 118.018 0.0777041 112.422 0.0455049C110.381 0.0358451 108.339 0.0229654 106.301 0.0133057C105.78 0.0133057 105.354 0.431895 105.354 0.953523C105.371 11.8336 105.374 22.8683 105.38 33.5617C108.996 30.551 112.754 27.6885 116.634 24.9033V24.8969Z" fill="#2FAF16"/>
<path d="M139.992 17.0399C134.872 19.3164 129.794 21.6734 124.877 24.3427C124.839 25.7273 124.797 26.7576 124.755 27.1215C124.639 28.1873 123.631 29.0051 122.479 29.0051C122.43 29.0051 122.382 29.0051 122.331 29.0051C121.171 28.9343 120.366 28.0617 120.35 26.88C119.043 27.6689 117.752 28.49 116.477 29.3432C112.967 31.697 109.113 33.6966 105.381 35.8088V39.7822C105.381 40.3006 105.799 40.7224 106.318 40.7224C107.564 40.7224 109.75 40.7224 111.006 40.7224C115.797 40.7224 120.756 40.7321 125.628 40.6999C127.392 40.687 129.247 40.5647 131.134 40.3296C135.371 39.8015 137.896 37.6474 138.852 33.7352C139.248 32.1091 139.663 30.1965 139.747 28.3579C139.927 24.2558 140.005 20.5335 139.989 17.0399H139.992Z" fill="#2FAF16"/>
<path d="M84.077 0.0516591C81.3433 0.0419994 78.558 0.0258998 75.6247 0.000140383C75.0999 -0.00307954 74.6716 0.41873 74.6748 0.943577C74.6748 1.99327 74.6748 3.04619 74.678 4.09588C76.9899 3.00111 79.3469 1.99971 81.7329 1.04983C82.525 0.737502 83.3042 0.396191 84.0802 0.0516591H84.077Z" fill="#2FAF16"/>
<path d="M100.026 29.9071H89.6322V28.6545C89.6322 28.4678 89.6032 10.4072 89.6193 0.995393C89.6193 0.473766 89.1975 0.0551758 88.6759 0.0551758C88.1317 0.0551758 87.5876 0.0551758 87.0402 0.0551758C82.9251 2.29946 78.8133 4.55019 74.6821 6.76871C74.6918 14.4708 74.695 22.1728 74.7015 29.8716L74.7079 39.7182C74.7079 40.2366 75.1297 40.6584 75.6481 40.6584H95.6342C97.4309 39.5282 99.292 38.4366 100.966 37.226V30.8441C100.966 30.3257 100.545 29.9039 100.026 29.9039V29.9071Z" fill="#2FAF16"/>
<path d="M100.025 40.6615C100.543 40.6615 100.965 40.2397 100.965 39.7213V38.5364C99.6902 39.248 98.4087 39.9564 97.1304 40.6615H100.025Z" fill="#2FAF16"/>
<path d="M69.2947 10.0877C65.7303 12.01 62.8323 14.6375 60.2113 17.5998C58.4758 19.5543 56.8111 21.5636 55.1528 23.576C55.1528 27.1791 55.1528 30.7629 55.1593 34.3112V39.7722C55.1593 40.2906 55.5843 40.7124 56.1027 40.7124H58.8815C62.2367 40.7124 65.6916 40.7124 69.1176 40.7253C69.6393 40.7253 70.0611 40.3035 70.0611 39.7819C70.0611 28.4574 70.0643 18.6431 70.0707 9.66272C69.8131 9.80762 69.5523 9.94929 69.2915 10.0845L69.2947 10.0877Z" fill="#2FAF16"/>
<path d="M69.1404 0.0420869C65.2153 0.0485268 61.0036 0.0420869 56.0868 0.0098877C55.5652 0.0098877 55.1369 0.428478 55.1402 0.950105C55.1498 6.8007 55.153 12.6932 55.153 18.5566C58.8946 15.092 62.8808 11.9365 67.1472 9.09007C68.11 8.44608 69.0856 7.84074 70.0774 7.26759C70.0774 5.12956 70.0838 3.03661 70.087 0.979084C70.087 0.457457 69.6652 0.038867 69.1436 0.038867L69.1404 0.0420869Z" fill="#2FAF16"/>
</svg>
