<svg width="32" height="32" viewBox="0 0 32 32" fill="none" xmlns="http://www.w3.org/2000/svg">
<path d="M11.5218 12.7903C11.4989 11.6824 11.515 9.54719 11.5312 8.10762C11.5338 7.89007 11.3593 7.71147 11.1404 7.71147C9.51683 7.70744 6.82971 7.69535 5.79568 7.68998C5.56739 7.68864 5.38744 7.88201 5.40222 8.1103C5.44653 8.72937 5.52845 9.88157 5.57545 10.5423C5.68154 12.0544 5.79165 13.6175 5.90714 15.1538C5.94743 15.6909 5.98906 16.2294 6.03203 16.7666C6.92774 16.1354 7.8033 15.472 8.70706 14.8503C9.6632 14.1909 10.5911 13.4899 11.5204 12.7903H11.5218Z" fill="#2FAF16"/>
<path d="M17.1017 8.94826C17.4535 8.68774 17.7879 8.40036 18.1357 8.13581C18.1236 8.09552 18.1128 8.05658 18.1008 8.01629C18.0524 7.85112 17.9034 7.73563 17.7301 7.73294C16.8008 7.71817 15.8622 7.71548 14.949 7.71414H14.5757C14.3984 7.71414 14.2426 7.83097 14.197 8.00286C13.9257 8.99929 13.5309 10.3959 13.1992 11.5535C13.7149 11.1963 14.299 10.929 14.8228 10.5772C15.5963 10.0548 16.3496 9.50018 17.1017 8.94691V8.94826Z" fill="#2FAF16"/>
<path d="M20.8491 24.6652C21.2466 24.6652 21.6454 24.6692 22.0429 24.6692H25.2833C25.4888 24.6692 25.6593 24.5107 25.6741 24.3066L26.0152 19.7623L18.4131 24.6705C19.2296 24.6585 20.0487 24.6625 20.8477 24.6652H20.8491Z" fill="#2FAF16"/>
<path d="M26.5019 7.68829H25.8438C24.2539 7.68829 22.6934 7.68829 21.137 7.68829C20.9195 7.68829 20.7449 7.86421 20.7449 8.08176C20.7449 8.25499 20.7449 8.45105 20.7449 8.66054L20.5314 15.9377L19.6034 13.1431C19.6034 13.1431 18.7024 10.0921 18.2418 8.50477C17.6066 9.12116 16.9754 9.74023 16.2999 10.3123C15.6755 10.8401 15.0752 11.3705 14.5327 11.9788C14.0103 12.5697 13.4302 13.1444 12.7843 13.6051C11.5918 14.4578 10.6007 15.4985 9.59355 16.5178C8.60922 17.5142 7.51879 18.2877 6.19739 18.8329C6.19739 18.8329 6.1947 18.8329 6.19336 18.8329C6.21216 19.072 6.22962 19.311 6.24976 19.5514C6.37196 21.1118 6.49954 22.7219 6.6204 24.3119C6.63651 24.5174 6.80706 24.6758 7.01386 24.6745C8.91942 24.6637 10.8478 24.6664 12.7171 24.6678H14.3004C14.4844 24.6678 14.6442 24.5402 14.6831 24.3603C14.8362 23.6566 15.1894 22.2277 15.5237 20.8875C15.9212 19.3029 16.2972 17.8405 16.2972 17.8405L16.6746 19.5541C16.9647 20.8741 17.2373 22.2573 17.5408 23.9789C19.312 23.0254 20.9732 21.888 22.5484 20.6002C23.7664 19.6037 25.0327 18.6503 26.1796 17.5854L26.8926 8.1113C26.9101 7.88301 26.7301 7.68964 26.5019 7.68964V7.68829Z" fill="#2FAF16"/>
</svg>
