<svg width="200" height="127" viewBox="0 0 200 127" fill="none" xmlns="http://www.w3.org/2000/svg">
<path d="M167.984 90.9956V90.2621C167.984 89.3017 167.909 88.3455 167.8 87.324L167.734 86.835V86.6254C167.686 86.2107 167.612 85.7523 167.533 85.3157L167.459 84.8791H167.437L167.2 83.7746C165.064 73.825 158.966 68.4944 157.727 67.5121C146.012 57.1216 122.706 50.8349 88.4988 48.8223L87.4613 48.7612L87.3737 24.5137H108.513C110.994 24.5235 113.469 24.7308 115.916 25.1337C118.246 25.494 120.515 26.1697 122.662 27.1419C124.513 27.9802 126.121 29.2717 127.337 30.8965C128.506 32.4682 129.11 34.4983 129.123 36.9343C129.183 39.1044 128.62 41.2462 127.499 43.1075C127.254 43.4885 126.988 43.8558 126.703 44.2077C126.12 44.8931 124.146 46.8664 119.541 48.8398C127.167 50.1495 137.774 52.5463 147.006 56.6021L147.702 56.2266H147.728L147.781 56.1961C149.266 55.411 150.65 54.4478 151.9 53.3278C152.434 52.8863 152.936 52.4078 153.402 51.8958L154.553 50.7214C159.132 46.002 161.417 39.9554 161.347 32.7519C161.312 25.7667 159.684 20.0301 156.532 15.756C153.299 11.4482 149.025 8.0268 144.108 5.81083C138.721 3.39217 132.989 1.82217 127.118 1.15692C120.939 0.393272 114.718 0.00691219 108.492 0H55.2198L55.3555 48.1893H55.106C29.7725 48.6259 0 51.0925 0 51.0925C10.5064 51.1449 55.1235 53.9957 55.1235 53.9957H55.373V127H114.541C120.932 126.988 127.308 126.392 133.589 125.219C139.584 124.162 145.377 122.178 150.758 119.338C155.674 116.746 159.923 113.055 163.173 108.555C166.285 104.189 167.909 98.7099 167.988 92.2136V91.6766C168.01 91.4452 167.997 91.24 167.984 90.9956ZM134.434 94.104L134.293 94.3616C134.235 94.4775 134.169 94.5898 134.096 94.6977C132.832 96.5539 131.18 98.1161 129.255 99.2774C127.185 100.506 124.908 101.347 122.535 101.762C120.092 102.225 117.611 102.463 115.124 102.473H88.8577L87.7327 102.325V99.7402C87.7983 91.3972 87.9428 72.1704 87.9997 68.1845C88.0331 66.8655 87.9141 65.5471 87.6451 64.2553L87.5488 63.8493L87.2818 62.9761C87.0347 62.1757 86.6282 61.4333 86.0867 60.7932C86.0079 60.6884 85.9291 60.588 85.8459 60.4876L84.1167 58.4008L97.3504 61.4481C118.547 67.0581 127.863 73.5893 131.986 78.134C137.975 85.8527 135.383 92.2922 134.434 94.104Z" fill="url(#paint0_linear_3901_22639)"/>
<defs>
<linearGradient id="paint0_linear_3901_22639" x1="84" y1="0" x2="84" y2="127" gradientUnits="userSpaceOnUse">
<stop stop-color="#151313"/>
<stop offset="0.5" stop-color="#0C0C0C"/>
<stop offset="0.778846" stop-color="#1B1A1A"/>
</linearGradient>
</defs>
</svg>
