<svg width="199" height="38" viewBox="0 0 199 38" fill="none" xmlns="http://www.w3.org/2000/svg">
<path d="M36.6952 0.00906543H37.7983V6.80477H41.1507V7.85237H36.6952V0.00906543Z" fill="white" fill-opacity="0.1"/>
<path fill-rule="evenodd" clip-rule="evenodd" d="M27.0862 0.318745C27.5516 0.519155 27.9566 0.792441 28.2927 1.14771C28.6288 1.50298 28.8874 1.92202 29.077 2.39572C29.2666 2.87852 29.3614 3.39777 29.3614 3.95345C29.3614 4.50913 29.2666 5.03748 29.077 5.51118C28.8874 5.98487 28.6288 6.40391 28.2927 6.75918C27.9566 7.10535 27.5516 7.38774 27.0862 7.58815C26.6122 7.78856 26.0952 7.88877 25.5436 7.88877C24.9834 7.88877 24.4664 7.78856 24.001 7.58815C23.5356 7.38774 23.1306 7.11446 22.7945 6.75918C22.467 6.41302 22.1998 5.98487 22.0102 5.51118C21.8206 5.02837 21.7259 4.50913 21.7259 3.95345C21.7259 3.39777 21.8206 2.86941 22.0102 2.39572C22.1998 1.92202 22.4584 1.50298 22.7945 1.14771C23.1306 0.801551 23.5356 0.519155 24.001 0.318745C24.475 0.118336 24.9921 0.0181309 25.5436 0.0181309C26.1038 0.0181309 26.6208 0.118336 27.0862 0.318745ZM28.0256 5.07392C28.1548 4.72776 28.2152 4.34516 28.2152 3.95345C28.2152 3.56174 28.1462 3.17914 28.0256 2.83298C27.9049 2.48681 27.7239 2.17709 27.4913 1.92202C27.2586 1.66696 26.9828 1.45744 26.6553 1.30257C26.3365 1.14771 25.9659 1.07484 25.5608 1.07484C25.1558 1.07484 24.7938 1.14771 24.4664 1.30257C24.1475 1.45744 23.8631 1.66696 23.6304 1.92202C23.4064 2.17709 23.2254 2.48681 23.0961 2.83298C22.9668 3.17914 22.9065 3.56174 22.9065 3.95345C22.9065 4.34516 22.9668 4.72776 23.0961 5.07392C23.2168 5.42008 23.3977 5.72981 23.6304 5.98487C23.8631 6.23994 24.1389 6.44946 24.4664 6.60432C24.7852 6.75918 25.1558 6.83206 25.5608 6.83206C25.9659 6.83206 26.3278 6.75918 26.6553 6.60432C26.9742 6.44946 27.2586 6.23994 27.4913 5.98487C27.7153 5.72981 27.8963 5.42008 28.0256 5.07392Z" fill="white" fill-opacity="0.1"/>
<path d="M42.9088 0.00906543H41.8057V7.86148H42.9088V0.00906543Z" fill="white" fill-opacity="0.1"/>
<path d="M51.3457 4.42719V6.80477H55.2497V7.85237H50.2426V0.00906543H55.0601V1.06577H51.3457V3.37048H54.8102V4.42719H51.3457Z" fill="white" fill-opacity="0.1"/>
<path d="M34.9975 5.21972L30.0249 0.00906543V7.85237H31.0591V2.70549L36.0403 7.85237V0.00906543H34.9975V5.21972Z" fill="white" fill-opacity="0.1"/>
<path d="M43.5637 0.00906543L48.5449 5.25616V0.00906543H49.5791V7.81593L44.6065 2.74192V7.85237H43.5637V0.00906543Z" fill="white" fill-opacity="0.1"/>
<path fill-rule="evenodd" clip-rule="evenodd" d="M9.78999 5.58414V5.62969C9.78999 5.64791 9.78999 5.66613 9.79861 5.67524V5.71168C9.78999 6.11249 9.69519 6.44955 9.51422 6.72283C9.32462 6.99612 9.08332 7.22386 8.79031 7.38783C8.4973 7.56091 8.1612 7.67933 7.79063 7.75221C7.42006 7.82509 7.04948 7.86153 6.67891 7.86153H3.23173V3.3432H3.2145C3.2145 3.3432 0.611874 3.16101 0 3.16101C0 3.16101 1.74083 3.00614 3.2145 2.97882H3.23173L3.22311 0H6.33419C6.69615 0 7.0581 0.0273286 7.42005 0.0728762C7.78201 0.127533 8.11811 0.218629 8.41112 0.364381C8.70413 0.510134 8.95405 0.719653 9.13503 0.983829C9.32462 1.24801 9.41942 1.59417 9.41942 2.03143C9.41942 2.47779 9.29015 2.85128 9.02299 3.14279L8.95405 3.21566C8.95405 3.21566 8.9282 3.2521 8.86787 3.30676C8.79893 3.36142 8.72998 3.41607 8.62657 3.47984C8.61795 3.4844 8.61149 3.48895 8.60502 3.4935C8.59856 3.49806 8.5921 3.50261 8.58348 3.50717C8.04055 3.2521 7.42867 3.10635 6.98054 3.02436C7.2477 2.90594 7.35973 2.78752 7.3942 2.74197C7.40682 2.72863 7.41482 2.71529 7.42496 2.69838C7.42867 2.69219 7.43267 2.68552 7.43729 2.6782C7.49762 2.56889 7.53209 2.44135 7.53209 2.2956C7.53209 2.14074 7.49762 2.02232 7.42867 1.92211C7.35111 1.82191 7.26493 1.74903 7.1529 1.69437C7.03225 1.63061 6.90298 1.59417 6.75647 1.56684C6.60997 1.53951 6.46346 1.5304 6.32558 1.5304H5.09321L5.10183 3.03347H5.16215C7.16152 3.16101 8.52315 3.54361 9.20397 4.19038C9.27291 4.24504 9.63487 4.57298 9.75552 5.19243L9.77276 5.2562V5.28353C9.77276 5.29719 9.77491 5.31086 9.77706 5.32452C9.77922 5.33818 9.78137 5.35185 9.78137 5.36551V5.40195C9.78137 5.43383 9.78353 5.46344 9.78568 5.49305C9.78784 5.52265 9.78999 5.55226 9.78999 5.58414ZM7.81648 5.84832L7.8251 5.8301C7.88542 5.71168 8.03193 5.31997 7.66998 4.83716C7.43729 4.55476 6.88574 4.15395 5.65337 3.80778L4.88638 3.61648L4.98979 3.74402L5.00703 3.76224C5.00927 3.76696 5.01324 3.77292 5.01836 3.78058C5.03296 3.80244 5.05683 3.83817 5.07597 3.89888L5.10183 3.98086C5.10255 3.98774 5.10327 3.99456 5.10399 4.00132C5.11183 4.07521 5.11906 4.14337 5.11906 4.22682C5.11044 4.47278 5.10183 5.65702 5.10183 6.17626V6.34023L5.17077 6.34934H6.70476C6.84265 6.34934 6.98916 6.33112 7.13566 6.30379C7.28217 6.27647 7.41144 6.22181 7.52347 6.14893C7.6355 6.07606 7.7303 5.98496 7.80786 5.86654C7.80786 5.86654 7.81648 5.85743 7.81648 5.84832Z" fill="white" fill-opacity="0.1"/>
<path d="M10.4191 7.86148V0.00906543H15.383V1.60323H12.1341V3.08809H15.2107V4.60938H12.1427V6.23998H15.5726V7.86148H10.4191Z" fill="white" fill-opacity="0.1"/>
<path d="M22.2515 0.783376C22.5532 0.473651 22.8979 0.218585 23.2857 0.00906543H16.038V1.63056H18.1235V7.86148H19.9075V1.63056H21.6138C21.7948 1.32084 22.0102 1.03844 22.2515 0.783376Z" fill="white" fill-opacity="0.1"/>
<path d="M5.03926 35.1964V11.8333H13.4542C15.0793 11.8333 16.5152 12.078 17.7619 12.5675C19.0085 13.0571 19.988 13.8136 20.7004 14.8371C21.4128 15.8606 21.769 17.1623 21.769 18.7421C21.769 19.4541 21.5686 20.155 21.1679 20.8448C20.7672 21.5345 20.2107 22.1687 19.4983 22.7472C20.5223 23.3035 21.3126 24.0377 21.8692 24.95C22.4257 25.84 22.704 26.9414 22.704 28.2542C22.704 29.745 22.3589 31.0133 21.6688 32.0591C20.9787 33.0826 20.0214 33.8614 18.797 34.3954C17.5949 34.9294 16.2035 35.1964 14.623 35.1964H5.03926ZM11.0499 29.7561H13.8883C14.623 29.7561 15.2018 29.5559 15.6247 29.1554C16.07 28.7549 16.2926 28.2431 16.2926 27.6201C16.2926 26.9971 16.07 26.5076 15.6247 26.1515C15.2018 25.7733 14.623 25.5842 13.8883 25.5842H11.0499V29.7561ZM11.0499 20.6779H13.0201C13.7325 20.6779 14.3113 20.4999 14.7565 20.1439C15.2018 19.7879 15.4244 19.2872 15.4244 18.642C15.4244 17.9967 15.2018 17.4961 14.7565 17.1401C14.3113 16.784 13.7325 16.606 13.0201 16.606H11.0499V20.6779Z" fill="#252525"/>
<path d="M25.551 35.1964V11.8333H31.7286V29.5225H41.3457V35.1964H25.551Z" fill="#252525"/>
<path d="M60.2371 35.1964L51.6885 11.8333H57.8328L66.782 35.1964H60.2371ZM42.2384 35.1964L51.1877 11.8333H57.3319L48.7834 35.1964H42.2384ZM46.4459 31.4583V26.018H62.6079V31.4583H46.4459Z" fill="#252525"/>
<path d="M78.8276 35.5969C76.4902 35.5969 74.4198 35.0852 72.6166 34.0616C70.8357 33.0159 69.4332 31.5918 68.4091 29.7895C67.3851 27.965 66.8731 25.8734 66.8731 23.5149C66.8731 21.1563 67.3851 19.0759 68.4091 17.2736C69.4332 15.449 70.8357 14.025 72.6166 13.0014C74.4198 11.9557 76.4902 11.4328 78.8276 11.4328C80.6309 11.4328 82.256 11.7443 83.703 12.3673C85.15 12.9903 86.3967 13.8581 87.443 14.9706C88.4893 16.0831 89.2907 17.3737 89.8472 18.8422L83.9701 20.7113C83.6585 19.977 83.2577 19.3429 82.768 18.8088C82.2782 18.2526 81.6994 17.8298 81.0316 17.5406C80.386 17.2513 79.6513 17.1067 78.8276 17.1067C77.7368 17.1067 76.7684 17.3848 75.9225 17.9411C75.0765 18.4751 74.4087 19.2205 73.9189 20.1773C73.4514 21.134 73.2177 22.2466 73.2177 23.5149C73.2177 24.7609 73.4626 25.8734 73.9523 26.8524C74.4421 27.8092 75.1099 28.5657 75.9559 29.122C76.8241 29.656 77.8147 29.923 78.9278 29.923C79.796 29.923 80.5418 29.7784 81.1651 29.4891C81.8107 29.1776 82.3561 28.7549 82.8014 28.2209C83.2689 27.6646 83.6696 27.0193 84.0035 26.2851L89.8806 28.1541C89.3463 29.6226 88.556 30.9243 87.5097 32.0591C86.4634 33.1716 85.2056 34.0394 83.7364 34.6624C82.2671 35.2854 80.6309 35.5969 78.8276 35.5969Z" fill="#252525"/>
<path d="M95.8417 31.2247V22.5803L105.592 11.8333H113.707L95.8417 31.2247ZM92.3689 35.1964V11.8333H98.5465V35.1964H92.3689ZM106.327 35.1964L97.2776 23.3146L101.919 19.71L114.007 35.1964H106.327Z" fill="#252525"/>
<path d="M114.835 38L124.051 10.2646H129.594L120.445 38H114.835Z" fill="#252525"/>
<path d="M143.441 35.5969C140.993 35.5969 138.822 35.0852 136.93 34.0616C135.06 33.0159 133.591 31.5918 132.522 29.7895C131.453 27.965 130.919 25.8845 130.919 23.5482C130.919 21.1897 131.453 19.1092 132.522 17.3069C133.591 15.4824 135.06 14.0583 136.93 13.0348C138.8 11.989 140.948 11.4661 143.375 11.4661C145.823 11.4661 147.983 11.989 149.853 13.0348C151.723 14.0583 153.192 15.4824 154.261 17.3069C155.329 19.1092 155.863 21.1897 155.863 23.5482C155.863 25.8845 155.329 27.965 154.261 29.7895C153.214 31.5918 151.756 33.0159 149.886 34.0616C148.016 35.0852 145.868 35.5969 143.441 35.5969ZM143.441 29.923C144.644 29.923 145.701 29.656 146.614 29.122C147.526 28.5657 148.239 27.8092 148.751 26.8524C149.263 25.8957 149.519 24.7943 149.519 23.5482C149.519 22.3022 149.252 21.2008 148.717 20.244C148.205 19.265 147.482 18.5085 146.547 17.9744C145.634 17.4182 144.577 17.1401 143.375 17.1401C142.195 17.1401 141.137 17.4182 140.202 17.9744C139.29 18.5085 138.566 19.265 138.032 20.244C137.52 21.2008 137.264 22.3022 137.264 23.5482C137.264 24.7943 137.531 25.8957 138.065 26.8524C138.599 27.8092 139.323 28.5657 140.236 29.122C141.171 29.656 142.239 29.923 143.441 29.923Z" fill="#252525"/>
<path d="M168.315 35.5969C166.244 35.5969 164.463 35.2187 162.972 34.4622C161.48 33.7056 160.334 32.6265 159.532 31.2247C158.753 29.8006 158.364 28.1096 158.364 26.1515V11.8333H164.541V26.1515C164.541 26.9303 164.697 27.5978 165.009 28.1541C165.321 28.7104 165.755 29.1331 166.311 29.4224C166.89 29.7116 167.58 29.8563 168.382 29.8563C169.183 29.8563 169.873 29.7116 170.452 29.4224C171.031 29.1331 171.465 28.7104 171.754 28.1541C172.066 27.5978 172.222 26.9303 172.222 26.1515V11.8333H178.399V26.1515C178.399 28.1096 177.999 29.8006 177.197 31.2247C176.396 32.6265 175.238 33.7056 173.724 34.4622C172.233 35.2187 170.43 35.5969 168.315 35.5969Z" fill="#252525"/>
<path d="M186.244 35.1964V17.5072H179.632V11.8333H199V17.5072H192.422V35.1964H186.244Z" fill="#252525"/>
</svg>
